<svg xmlns="http://www.w3.org/2000/svg" xmlns:xlink="http://www.w3.org/1999/xlink" width="1080" zoomAndPan="magnify" viewBox="0 0 810 809.999993" height="1080" preserveAspectRatio="xMidYMid meet" version="1.0"><defs><clipPath id="9f1c6bfe25"><path d="M 190.875 190.875 L 619.125 190.875 L 619.125 619.125 L 190.875 619.125 Z M 190.875 190.875 " clip-rule="nonzero"/></clipPath></defs><g clip-path="url(#9f1c6bfe25)"><path fill="#1a4789" d="M 619.144531 405.003906 C 619.144531 408.507812 619.058594 412.011719 618.886719 415.511719 C 618.714844 419.011719 618.457031 422.507812 618.113281 425.992188 C 617.769531 429.480469 617.34375 432.957031 616.828125 436.425781 C 616.3125 439.890625 615.714844 443.34375 615.03125 446.78125 C 614.347656 450.214844 613.578125 453.632812 612.726562 457.035156 C 611.875 460.433594 610.941406 463.808594 609.925781 467.164062 C 608.90625 470.515625 607.808594 473.84375 606.628906 477.140625 C 605.449219 480.441406 604.1875 483.710938 602.847656 486.949219 C 601.503906 490.1875 600.085938 493.386719 598.585938 496.554688 C 597.089844 499.722656 595.511719 502.851562 593.863281 505.945312 C 592.210938 509.035156 590.484375 512.082031 588.679688 515.089844 C 586.878906 518.09375 585.003906 521.054688 583.058594 523.96875 C 581.113281 526.882812 579.09375 529.746094 577.007812 532.558594 C 574.917969 535.375 572.765625 538.136719 570.539062 540.847656 C 568.316406 543.554688 566.03125 546.207031 563.675781 548.804688 C 561.324219 551.402344 558.90625 553.9375 556.429688 556.414062 C 553.949219 558.894531 551.414062 561.308594 548.816406 563.664062 C 546.222656 566.015625 543.566406 568.304688 540.859375 570.527344 C 538.148438 572.75 535.386719 574.90625 532.574219 576.992188 C 529.757812 579.082031 526.894531 581.097656 523.980469 583.046875 C 521.066406 584.992188 518.109375 586.867188 515.101562 588.667969 C 512.097656 590.46875 509.046875 592.195312 505.957031 593.847656 C 502.867188 595.5 499.738281 597.074219 496.570312 598.574219 C 493.402344 600.070312 490.199219 601.492188 486.960938 602.832031 C 483.722656 604.171875 480.457031 605.433594 477.15625 606.613281 C 473.855469 607.796875 470.53125 608.894531 467.175781 609.910156 C 463.824219 610.929688 460.445312 611.863281 457.046875 612.714844 C 453.648438 613.566406 450.230469 614.335938 446.792969 615.019531 C 443.355469 615.703125 439.902344 616.300781 436.4375 616.8125 C 432.972656 617.328125 429.496094 617.757812 426.007812 618.101562 C 422.519531 618.445312 419.027344 618.703125 415.523438 618.875 C 412.023438 619.046875 408.523438 619.132812 405.019531 619.132812 C 401.515625 619.132812 398.011719 619.046875 394.511719 618.875 C 391.011719 618.703125 387.519531 618.445312 384.03125 618.101562 C 380.542969 617.757812 377.066406 617.328125 373.601562 616.8125 C 370.132812 616.300781 366.679688 615.703125 363.246094 615.019531 C 359.808594 614.332031 356.390625 613.566406 352.988281 612.714844 C 349.589844 611.863281 346.214844 610.929688 342.859375 609.910156 C 339.507812 608.894531 336.179688 607.796875 332.882812 606.613281 C 329.582031 605.433594 326.3125 604.171875 323.074219 602.832031 C 319.839844 601.492188 316.636719 600.070312 313.46875 598.574219 C 310.300781 597.074219 307.171875 595.5 304.078125 593.847656 C 300.988281 592.195312 297.941406 590.46875 294.933594 588.667969 C 291.929688 586.867188 288.96875 584.992188 286.054688 583.046875 C 283.140625 581.097656 280.277344 579.082031 277.464844 576.992188 C 274.648438 574.90625 271.886719 572.75 269.179688 570.527344 C 266.46875 568.304688 263.816406 566.015625 261.21875 563.664062 C 258.625 561.308594 256.085938 558.894531 253.609375 556.414062 C 251.128906 553.9375 248.714844 551.402344 246.359375 548.804688 C 244.007812 546.207031 241.71875 543.554688 239.496094 540.847656 C 237.273438 538.136719 235.117188 535.375 233.03125 532.558594 C 230.941406 529.746094 228.925781 526.882812 226.980469 523.96875 C 225.03125 521.054688 223.15625 518.09375 221.355469 515.089844 C 219.554688 512.082031 217.828125 509.035156 216.175781 505.945312 C 214.523438 502.851562 212.949219 499.722656 211.449219 496.554688 C 209.953125 493.386719 208.53125 490.1875 207.191406 486.949219 C 205.851562 483.710938 204.589844 480.441406 203.410156 477.140625 C 202.226562 473.84375 201.128906 470.515625 200.113281 467.164062 C 199.09375 463.808594 198.160156 460.433594 197.308594 457.035156 C 196.457031 453.632812 195.691406 450.214844 195.007812 446.78125 C 194.324219 443.34375 193.722656 439.890625 193.210938 436.425781 C 192.695312 432.957031 192.265625 429.480469 191.921875 425.992188 C 191.578125 422.507812 191.320312 419.011719 191.148438 415.511719 C 190.976562 412.011719 190.890625 408.507812 190.890625 405.003906 C 190.890625 401.5 190.976562 398 191.148438 394.5 C 191.320312 391 191.578125 387.503906 191.921875 384.015625 C 192.265625 380.53125 192.695312 377.054688 193.210938 373.585938 C 193.722656 370.121094 194.324219 366.667969 195.007812 363.230469 C 195.691406 359.792969 196.457031 356.375 197.308594 352.976562 C 198.160156 349.578125 199.09375 346.199219 200.113281 342.847656 C 201.128906 339.496094 202.226562 336.167969 203.410156 332.867188 C 204.589844 329.570312 205.851562 326.300781 207.191406 323.0625 C 208.53125 319.824219 209.953125 316.621094 211.449219 313.453125 C 212.949219 310.285156 214.523438 307.15625 216.175781 304.066406 C 217.828125 300.976562 219.554688 297.929688 221.355469 294.921875 C 223.15625 291.917969 225.03125 288.957031 226.980469 286.042969 C 228.925781 283.128906 230.941406 280.265625 233.03125 277.449219 C 235.117188 274.636719 237.273438 271.875 239.496094 269.164062 C 241.71875 266.457031 244.007812 263.804688 246.359375 261.207031 C 248.714844 258.609375 251.128906 256.074219 253.609375 253.59375 C 256.085938 251.117188 258.625 248.703125 261.21875 246.347656 C 263.816406 243.996094 266.46875 241.707031 269.179688 239.484375 C 271.886719 237.261719 274.648438 235.105469 277.464844 233.015625 C 280.277344 230.929688 283.140625 228.914062 286.054688 226.964844 C 288.96875 225.019531 291.929688 223.144531 294.933594 221.34375 C 297.941406 219.542969 300.988281 217.8125 304.078125 216.164062 C 307.171875 214.511719 310.300781 212.933594 313.46875 211.4375 C 316.636719 209.9375 319.839844 208.519531 323.074219 207.179688 C 326.3125 205.835938 329.582031 204.574219 332.882812 203.394531 C 336.179688 202.214844 339.507812 201.117188 342.859375 200.097656 C 346.214844 199.082031 349.589844 198.148438 352.988281 197.296875 C 356.390625 196.445312 359.808594 195.675781 363.246094 194.992188 C 366.679688 194.308594 370.132812 193.710938 373.601562 193.195312 C 377.066406 192.683594 380.542969 192.253906 384.03125 191.910156 C 387.519531 191.566406 391.011719 191.308594 394.511719 191.136719 C 398.011719 190.964844 401.515625 190.878906 405.019531 190.878906 C 408.523438 190.878906 412.023438 190.964844 415.523438 191.136719 C 419.027344 191.308594 422.519531 191.566406 426.007812 191.910156 C 429.496094 192.253906 432.972656 192.683594 436.4375 193.195312 C 439.902344 193.710938 443.355469 194.308594 446.792969 194.992188 C 450.230469 195.675781 453.648438 196.445312 457.046875 197.296875 C 460.445312 198.148438 463.824219 199.082031 467.175781 200.097656 C 470.53125 201.117188 473.855469 202.214844 477.15625 203.394531 C 480.457031 204.574219 483.722656 205.835938 486.960938 207.179688 C 490.199219 208.519531 493.402344 209.9375 496.570312 211.4375 C 499.738281 212.933594 502.867188 214.511719 505.957031 216.164062 C 509.046875 217.8125 512.097656 219.542969 515.101562 221.34375 C 518.109375 223.144531 521.066406 225.019531 523.980469 226.964844 C 526.894531 228.914062 529.757812 230.929688 532.574219 233.015625 C 535.386719 235.105469 538.148438 237.261719 540.859375 239.484375 C 543.566406 241.707031 546.222656 243.996094 548.816406 246.347656 C 551.414062 248.703125 553.949219 251.117188 556.429688 253.59375 C 558.90625 256.074219 561.324219 258.609375 563.675781 261.207031 C 566.03125 263.804688 568.316406 266.457031 570.539062 269.164062 C 572.765625 271.875 574.917969 274.636719 577.007812 277.449219 C 579.09375 280.265625 581.113281 283.128906 583.058594 286.042969 C 585.003906 288.957031 586.878906 291.917969 588.679688 294.921875 C 590.484375 297.929688 592.210938 300.976562 593.863281 304.066406 C 595.511719 307.15625 597.089844 310.285156 598.585938 313.453125 C 600.085938 316.621094 601.503906 319.824219 602.847656 323.0625 C 604.1875 326.300781 605.449219 329.570312 606.628906 332.867188 C 607.808594 336.167969 608.90625 339.492188 609.925781 342.847656 C 610.941406 346.199219 611.875 349.578125 612.726562 352.976562 C 613.578125 356.375 614.347656 359.792969 615.03125 363.230469 C 615.714844 366.667969 616.3125 370.121094 616.828125 373.585938 C 617.34375 377.054688 617.769531 380.53125 618.113281 384.015625 C 618.457031 387.503906 618.714844 391 618.886719 394.5 C 619.058594 398 619.144531 401.5 619.144531 405.003906 Z M 619.144531 405.003906 " fill-opacity="1" fill-rule="nonzero"/></g><path fill="#ffffff" d="M 458.765625 416.019531 L 464.820312 369.078125 L 418.332031 369.078125 L 418.332031 339.105469 C 418.332031 325.515625 422.125 316.253906 441.609375 316.253906 L 466.449219 316.238281 L 466.449219 274.257812 C 462.160156 273.683594 447.414062 272.40625 430.234375 272.40625 C 394.390625 272.40625 369.867188 294.285156 369.867188 334.460938 L 369.867188 369.078125 L 329.332031 369.078125 L 329.332031 416.019531 L 369.867188 416.019531 L 369.867188 536.464844 L 418.332031 536.464844 L 418.332031 416.019531 Z M 458.765625 416.019531 " fill-opacity="1" fill-rule="nonzero"/></svg>