<svg xmlns="http://www.w3.org/2000/svg" xmlns:xlink="http://www.w3.org/1999/xlink" width="1080" zoomAndPan="magnify" viewBox="0 0 810 809.999993" height="1080" preserveAspectRatio="xMidYMid meet" version="1.0"><defs><clipPath id="eddfe878f9"><path d="M 191 190.875 L 619 190.875 L 619 619.125 L 191 619.125 Z M 191 190.875 " clip-rule="nonzero"/></clipPath></defs><g clip-path="url(#eddfe878f9)"><path fill="#0277b5" d="M 583.347656 190.875 L 226.867188 190.875 C 207.15625 190.875 191.304688 206.941406 191.304688 226.4375 L 191.304688 583.5625 C 191.304688 603.273438 207.371094 619.125 226.867188 619.125 L 583.132812 619.125 C 602.84375 619.125 618.695312 603.058594 618.695312 583.5625 L 618.695312 226.4375 C 618.910156 206.941406 603.058594 190.875 583.347656 190.875 Z M 317.914062 544.144531 L 254.714844 544.144531 L 254.714844 354.335938 L 317.914062 354.335938 Z M 286.207031 331.410156 C 266.285156 331.410156 250.21875 315.34375 250.21875 295.421875 C 250.21875 275.496094 266.285156 259.429688 286.207031 259.429688 C 306.132812 259.429688 322.199219 275.496094 322.199219 295.421875 C 322.199219 315.34375 306.132812 331.410156 286.207031 331.410156 Z M 555.710938 544.144531 L 492.300781 544.144531 L 490.800781 431.457031 C 490.800781 431.457031 492.300781 401.464844 459.523438 401.679688 C 426.746094 401.894531 422.246094 431.457031 422.246094 431.457031 L 422.246094 544.144531 L 358.40625 544.144531 L 358.40625 354.335938 L 419.675781 354.335938 L 419.675781 380.46875 C 419.675781 380.46875 422.246094 371.902344 436.386719 361.832031 C 450.523438 351.761719 473.875 349.621094 483.945312 350.050781 C 494.011719 350.476562 507.722656 348.765625 530.648438 364.617188 C 555.285156 381.542969 555.925781 425.886719 555.925781 425.886719 Z M 555.710938 544.144531 " fill-opacity="1" fill-rule="nonzero"/></g></svg>