<svg xmlns="http://www.w3.org/2000/svg" xmlns:xlink="http://www.w3.org/1999/xlink" width="1080" zoomAndPan="magnify" viewBox="0 0 810 809.999993" height="1080" preserveAspectRatio="xMidYMid meet" version="1.0"><defs><clipPath id="a43fa8c78d"><path d="M 388 196.992188 L 613.242188 196.992188 L 613.242188 423 L 388 423 Z M 388 196.992188 " clip-rule="nonzero"/></clipPath></defs><g clip-path="url(#a43fa8c78d)"><path fill="#000000" d="M 546.28125 263.953125 C 508.160156 225.832031 455.457031 203.246094 389.6875 196.832031 L 388.078125 213.222656 C 449.964844 219.269531 499.257812 240.269531 534.609375 275.621094 C 569.960938 310.972656 590.960938 360.265625 597.011719 422.152344 L 613.398438 420.542969 C 606.984375 354.773438 584.398438 302.070312 546.28125 263.953125 " fill-opacity="1" fill-rule="nonzero"/></g><path fill="#000000" d="M 479.761719 423.074219 L 496.0625 420.757812 C 491.410156 388.175781 480.554688 363.164062 463.800781 346.429688 C 447.070312 329.675781 422.058594 318.824219 389.472656 314.167969 L 387.15625 330.472656 C 416.117188 334.609375 437.972656 343.898438 452.152344 358.078125 C 466.332031 372.257812 475.621094 394.117188 479.761719 423.074219 " fill-opacity="1" fill-rule="nonzero"/><path fill="#000000" d="M 389.539062 255.351562 L 387.671875 271.71875 C 433.105469 276.929688 468.671875 292.117188 493.402344 316.828125 C 518.113281 341.5625 533.300781 377.125 538.515625 422.558594 L 554.882812 420.695312 C 549.238281 371.464844 532.464844 332.59375 505.050781 305.179688 C 477.636719 277.765625 438.769531 260.992188 389.539062 255.351562 " fill-opacity="1" fill-rule="nonzero"/><path fill="#000000" d="M 502.757812 479.984375 C 489.84375 467.050781 468.863281 467.050781 455.949219 479.984375 L 431.089844 504.824219 C 426.949219 508.964844 420.597656 509.800781 415.449219 506.992188 C 392.671875 494.59375 370.984375 478.523438 351.355469 458.875 C 331.707031 439.25 315.640625 417.5625 303.242188 394.78125 C 300.429688 389.632812 301.269531 383.285156 305.40625 379.144531 L 330.25 354.28125 C 343.183594 341.367188 343.183594 320.390625 330.25 307.476562 L 291.421875 268.628906 C 278.488281 255.695312 257.53125 255.695312 244.59375 268.628906 L 216.367188 296.859375 C 202.808594 310.394531 197.1875 330 201.605469 348.640625 C 215.722656 408.316406 247.191406 466.449219 295.476562 514.753906 C 343.785156 563.042969 401.914062 594.511719 461.59375 608.625 C 480.234375 613.042969 499.839844 607.421875 513.375 593.867188 L 541.605469 565.636719 C 554.539062 552.703125 554.539062 531.746094 541.605469 518.808594 L 502.757812 479.984375 " fill-opacity="1" fill-rule="nonzero"/></svg>