<svg xmlns="http://www.w3.org/2000/svg" xmlns:xlink="http://www.w3.org/1999/xlink" width="1080" zoomAndPan="magnify" viewBox="0 0 810 809.999993" height="1080" preserveAspectRatio="xMidYMid meet" version="1.0"><defs><clipPath id="bafa5b2c27"><path d="M 187.679688 187.679688 L 615.929688 187.679688 L 615.929688 615.929688 L 187.679688 615.929688 Z M 187.679688 187.679688 " clip-rule="nonzero"/></clipPath></defs><g clip-path="url(#bafa5b2c27)"><path fill="#0fb73b" d="M 615.941406 401.804688 C 615.941406 405.308594 615.855469 408.808594 615.683594 412.308594 C 615.511719 415.808594 615.253906 419.304688 614.910156 422.792969 C 614.566406 426.28125 614.136719 429.757812 613.621094 433.222656 C 613.109375 436.691406 612.507812 440.140625 611.824219 443.578125 C 611.140625 447.015625 610.375 450.433594 609.523438 453.832031 C 608.671875 457.234375 607.738281 460.609375 606.71875 463.964844 C 605.703125 467.316406 604.601562 470.644531 603.421875 473.945312 C 602.242188 477.242188 600.980469 480.511719 599.640625 483.75 C 598.296875 486.988281 596.878906 490.191406 595.378906 493.359375 C 593.882812 496.527344 592.308594 499.65625 590.65625 502.746094 C 589.003906 505.835938 587.277344 508.886719 585.472656 511.890625 C 583.671875 514.898438 581.796875 517.855469 579.851562 520.769531 C 577.90625 523.683594 575.886719 526.550781 573.800781 529.363281 C 571.710938 532.179688 569.554688 534.941406 567.332031 537.648438 C 565.109375 540.359375 562.820312 543.011719 560.46875 545.609375 C 558.113281 548.207031 555.699219 550.742188 553.222656 553.222656 C 550.742188 555.699219 548.207031 558.113281 545.609375 560.46875 C 543.011719 562.820312 540.359375 565.109375 537.648438 567.332031 C 534.941406 569.554688 532.179688 571.710938 529.363281 573.800781 C 526.550781 575.886719 523.683594 577.90625 520.769531 579.851562 C 517.855469 581.796875 514.898438 583.671875 511.890625 585.472656 C 508.886719 587.277344 505.835938 589.003906 502.746094 590.65625 C 499.65625 592.308594 496.527344 593.882812 493.359375 595.378906 C 490.191406 596.878906 486.988281 598.296875 483.75 599.640625 C 480.511719 600.980469 477.242188 602.242188 473.945312 603.421875 C 470.644531 604.601562 467.316406 605.703125 463.964844 606.71875 C 460.609375 607.738281 457.234375 608.671875 453.832031 609.523438 C 450.433594 610.375 447.015625 611.140625 443.578125 611.824219 C 440.140625 612.507812 436.691406 613.109375 433.222656 613.621094 C 429.757812 614.136719 426.28125 614.566406 422.792969 614.910156 C 419.304688 615.253906 415.808594 615.511719 412.308594 615.683594 C 408.808594 615.855469 405.308594 615.941406 401.804688 615.941406 C 398.296875 615.941406 394.796875 615.855469 391.296875 615.683594 C 387.796875 615.511719 384.300781 615.253906 380.8125 614.910156 C 377.324219 614.566406 373.847656 614.136719 370.382812 613.621094 C 366.914062 613.109375 363.464844 612.507812 360.027344 611.824219 C 356.589844 611.140625 353.171875 610.375 349.773438 609.523438 C 346.371094 608.671875 342.996094 607.738281 339.640625 606.71875 C 336.289062 605.703125 332.960938 604.601562 329.660156 603.421875 C 326.363281 602.242188 323.09375 600.980469 319.855469 599.640625 C 316.617188 598.296875 313.414062 596.878906 310.246094 595.378906 C 307.078125 593.882812 303.949219 592.308594 300.859375 590.65625 C 297.769531 589.003906 294.71875 587.277344 291.714844 585.472656 C 288.707031 583.671875 285.75 581.796875 282.835938 579.851562 C 279.921875 577.90625 277.054688 575.886719 274.242188 573.800781 C 271.425781 571.710938 268.664062 569.554688 265.957031 567.332031 C 263.246094 565.109375 260.59375 562.820312 257.996094 560.46875 C 255.398438 558.113281 252.863281 555.699219 250.386719 553.222656 C 247.90625 550.742188 245.492188 548.207031 243.136719 545.609375 C 240.785156 543.011719 238.496094 540.359375 236.273438 537.648438 C 234.050781 534.941406 231.894531 532.179688 229.804688 529.363281 C 227.71875 526.550781 225.699219 523.683594 223.753906 520.769531 C 221.808594 517.855469 219.933594 514.898438 218.132812 511.890625 C 216.328125 508.886719 214.601562 505.835938 212.949219 502.746094 C 211.296875 499.65625 209.722656 496.527344 208.226562 493.359375 C 206.726562 490.191406 205.308594 486.988281 203.964844 483.75 C 202.625 480.511719 201.363281 477.242188 200.183594 473.945312 C 199.003906 470.644531 197.902344 467.316406 196.886719 463.964844 C 195.867188 460.609375 194.933594 457.234375 194.082031 453.832031 C 193.230469 450.433594 192.464844 447.015625 191.78125 443.578125 C 191.097656 440.140625 190.496094 436.691406 189.984375 433.222656 C 189.46875 429.757812 189.039062 426.28125 188.695312 422.792969 C 188.351562 419.304688 188.09375 415.808594 187.921875 412.308594 C 187.75 408.808594 187.664062 405.308594 187.664062 401.804688 C 187.664062 398.296875 187.75 394.796875 187.921875 391.296875 C 188.09375 387.796875 188.351562 384.300781 188.695312 380.8125 C 189.039062 377.324219 189.46875 373.847656 189.984375 370.382812 C 190.496094 366.914062 191.097656 363.464844 191.78125 360.027344 C 192.464844 356.589844 193.230469 353.171875 194.082031 349.773438 C 194.933594 346.371094 195.867188 342.996094 196.886719 339.640625 C 197.902344 336.289062 199.003906 332.960938 200.183594 329.660156 C 201.363281 326.363281 202.625 323.09375 203.964844 319.855469 C 205.308594 316.617188 206.726562 313.414062 208.226562 310.246094 C 209.722656 307.078125 211.296875 303.949219 212.949219 300.859375 C 214.601562 297.769531 216.328125 294.71875 218.132812 291.714844 C 219.933594 288.707031 221.808594 285.75 223.753906 282.835938 C 225.699219 279.921875 227.71875 277.054688 229.804688 274.242188 C 231.894531 271.425781 234.050781 268.664062 236.273438 265.957031 C 238.496094 263.246094 240.785156 260.59375 243.136719 257.996094 C 245.492188 255.398438 247.90625 252.863281 250.386719 250.386719 C 252.863281 247.90625 255.398438 245.492188 257.996094 243.136719 C 260.59375 240.785156 263.246094 238.496094 265.957031 236.273438 C 268.664062 234.050781 271.425781 231.894531 274.242188 229.804688 C 277.054688 227.71875 279.921875 225.699219 282.835938 223.753906 C 285.75 221.808594 288.707031 219.933594 291.714844 218.132812 C 294.71875 216.328125 297.769531 214.601562 300.859375 212.949219 C 303.949219 211.296875 307.078125 209.722656 310.246094 208.226562 C 313.414062 206.726562 316.617188 205.308594 319.855469 203.964844 C 323.09375 202.625 326.363281 201.363281 329.660156 200.183594 C 332.960938 199.003906 336.289062 197.902344 339.640625 196.886719 C 342.996094 195.867188 346.371094 194.933594 349.773438 194.082031 C 353.171875 193.230469 356.589844 192.464844 360.027344 191.78125 C 363.464844 191.097656 366.914062 190.496094 370.382812 189.984375 C 373.847656 189.46875 377.324219 189.039062 380.8125 188.695312 C 384.300781 188.351562 387.796875 188.09375 391.296875 187.921875 C 394.796875 187.75 398.296875 187.664062 401.804688 187.664062 C 405.308594 187.664062 408.808594 187.75 412.308594 187.921875 C 415.808594 188.09375 419.304688 188.351562 422.792969 188.695312 C 426.28125 189.039062 429.757812 189.46875 433.222656 189.984375 C 436.691406 190.496094 440.140625 191.097656 443.578125 191.78125 C 447.015625 192.464844 450.433594 193.230469 453.832031 194.082031 C 457.234375 194.933594 460.609375 195.867188 463.964844 196.886719 C 467.316406 197.902344 470.644531 199.003906 473.945312 200.183594 C 477.242188 201.363281 480.511719 202.625 483.75 203.964844 C 486.988281 205.308594 490.191406 206.726562 493.359375 208.226562 C 496.527344 209.722656 499.65625 211.296875 502.746094 212.949219 C 505.835938 214.601562 508.886719 216.328125 511.890625 218.132812 C 514.898438 219.933594 517.855469 221.808594 520.769531 223.753906 C 523.683594 225.699219 526.550781 227.71875 529.363281 229.804688 C 532.179688 231.894531 534.941406 234.050781 537.648438 236.273438 C 540.359375 238.496094 543.011719 240.785156 545.609375 243.136719 C 548.207031 245.492188 550.742188 247.90625 553.222656 250.386719 C 555.699219 252.863281 558.113281 255.398438 560.46875 257.996094 C 562.820312 260.59375 565.109375 263.246094 567.332031 265.957031 C 569.554688 268.664062 571.710938 271.425781 573.800781 274.242188 C 575.886719 277.054688 577.90625 279.921875 579.851562 282.835938 C 581.796875 285.75 583.671875 288.707031 585.472656 291.714844 C 587.277344 294.71875 589.003906 297.769531 590.65625 300.859375 C 592.308594 303.949219 593.882812 307.078125 595.378906 310.246094 C 596.878906 313.414062 598.296875 316.617188 599.640625 319.855469 C 600.980469 323.09375 602.242188 326.363281 603.421875 329.664062 C 604.601562 332.960938 605.703125 336.289062 606.71875 339.640625 C 607.738281 342.996094 608.671875 346.371094 609.523438 349.773438 C 610.375 353.171875 611.140625 356.589844 611.824219 360.027344 C 612.507812 363.464844 613.109375 366.914062 613.621094 370.382812 C 614.136719 373.847656 614.566406 377.324219 614.910156 380.8125 C 615.253906 384.300781 615.511719 387.796875 615.683594 391.296875 C 615.855469 394.796875 615.941406 398.296875 615.941406 401.804688 Z M 615.941406 401.804688 " fill-opacity="1" fill-rule="nonzero"/></g><path fill="#ffffff" d="M 401.804688 563.890625 C 379.925781 563.890625 358.699219 559.601562 338.707031 551.148438 C 319.40625 542.980469 302.074219 531.296875 287.191406 516.414062 C 272.308594 501.53125 260.625 484.199219 252.457031 464.898438 C 244.003906 444.90625 239.714844 423.679688 239.714844 401.804688 C 239.714844 379.925781 244.003906 358.699219 252.457031 338.707031 C 260.625 319.40625 272.308594 302.074219 287.191406 287.191406 C 302.074219 272.308594 319.40625 260.625 338.707031 252.457031 C 358.699219 244.003906 379.925781 239.714844 401.804688 239.714844 C 423.679688 239.714844 444.90625 244.003906 464.898438 252.457031 C 484.199219 260.625 501.53125 272.308594 516.414062 287.191406 C 531.296875 302.074219 542.980469 319.40625 551.148438 338.707031 C 559.601562 358.699219 563.890625 379.925781 563.890625 401.804688 C 563.890625 423.679688 559.601562 444.90625 551.148438 464.898438 C 542.980469 484.199219 531.296875 501.53125 516.414062 516.414062 C 501.53125 531.296875 484.199219 542.980469 464.898438 551.148438 C 444.90625 559.601562 423.679688 563.890625 401.804688 563.890625 Z M 401.804688 261.472656 C 364.320312 261.472656 329.078125 276.070312 302.574219 302.574219 C 276.070312 329.078125 261.472656 364.320312 261.472656 401.804688 C 261.472656 439.289062 276.070312 474.527344 302.574219 501.03125 C 329.078125 527.535156 364.320312 542.132812 401.804688 542.132812 C 439.285156 542.132812 474.527344 527.539062 501.03125 501.03125 C 527.535156 474.527344 542.132812 439.289062 542.132812 401.804688 C 542.132812 364.320312 527.535156 329.078125 501.03125 302.574219 C 474.527344 276.070312 439.285156 261.472656 401.804688 261.472656 Z M 401.804688 261.472656 " fill-opacity="1" fill-rule="nonzero"/><path fill="#ffffff" d="M 472.792969 465.066406 L 474.4375 463.421875 C 482.519531 455.339844 481.441406 441.945312 472.171875 435.257812 L 458.511719 425.40625 C 449.8125 419.132812 437.847656 420.09375 430.265625 427.675781 L 428.421875 429.519531 C 423.3125 434.628906 415.4375 435.765625 409.109375 432.28125 C 393.34375 423.613281 380.78125 410.960938 371.414062 394.328125 C 367.820312 387.945312 368.867188 379.960938 374.042969 374.78125 L 375.707031 373.117188 C 383.292969 365.535156 384.253906 353.570312 377.980469 344.875 L 368.125 331.214844 C 361.441406 321.945312 348.042969 320.867188 339.960938 328.949219 L 338.785156 330.125 C 322.015625 346.894531 318.898438 372.972656 331.257812 393.214844 C 351.527344 426.398438 377.542969 452.941406 409.582031 472.515625 C 429.871094 484.90625 455.988281 481.875 472.792969 465.066406 Z M 472.792969 465.066406 " fill-opacity="1" fill-rule="nonzero"/></svg>