<svg xmlns="http://www.w3.org/2000/svg" xmlns:xlink="http://www.w3.org/1999/xlink" width="321" zoomAndPan="magnify" viewBox="0 0 240.75 141.750002" height="188" preserveAspectRatio="xMidYMid meet" version="1.0"><defs><clipPath id="acd5140e52"><path d="M 77.621094 92 L 81 92 L 81 97 L 77.621094 97 Z M 77.621094 92 " clip-rule="nonzero"/></clipPath><clipPath id="dcf119d1eb"><path d="M 77.621094 85 L 100 85 L 100 101 L 77.621094 101 Z M 77.621094 85 " clip-rule="nonzero"/></clipPath><clipPath id="61fc0e2522"><path d="M 77.621094 77 L 81 77 L 81 82 L 77.621094 82 Z M 77.621094 77 " clip-rule="nonzero"/></clipPath><clipPath id="f521220844"><path d="M 77.621094 70 L 103 70 L 103 86 L 77.621094 86 Z M 77.621094 70 " clip-rule="nonzero"/></clipPath><clipPath id="2cc4484f47"><path d="M 77.621094 23 L 81 23 L 81 28 L 77.621094 28 Z M 77.621094 23 " clip-rule="nonzero"/></clipPath><clipPath id="caefdfcfb8"><path d="M 77.621094 16 L 81 16 L 81 21 L 77.621094 21 Z M 77.621094 16 " clip-rule="nonzero"/></clipPath><clipPath id="8d31dd708c"><path d="M 152 130.820312 L 162.96875 130.820312 L 162.96875 137.976562 L 152 137.976562 Z M 152 130.820312 " clip-rule="nonzero"/></clipPath><clipPath id="4f73b5a4f3"><path d="M 78 3.457031 L 90 3.457031 L 90 10 L 78 10 Z M 78 3.457031 " clip-rule="nonzero"/></clipPath><clipPath id="75f8a99d65"><path d="M 77.621094 31 L 103 31 L 103 54 L 77.621094 54 Z M 77.621094 31 " clip-rule="nonzero"/></clipPath><clipPath id="621b20635d"><path d="M 77.621094 9 L 81 9 L 81 14 L 77.621094 14 Z M 77.621094 9 " clip-rule="nonzero"/></clipPath><clipPath id="e4c6830a4e"><path d="M 79 3.457031 L 92 3.457031 L 92 14 L 79 14 Z M 79 3.457031 " clip-rule="nonzero"/></clipPath><clipPath id="db2136d691"><path d="M 152.589844 102 L 162.96875 102 L 162.96875 137 L 152.589844 137 Z M 152.589844 102 " clip-rule="nonzero"/></clipPath><clipPath id="5002c05952"><path d="M 151.148438 99.023438 L 162.96875 99.023438 L 162.96875 109 L 151.148438 109 Z M 151.148438 99.023438 " clip-rule="nonzero"/></clipPath><clipPath id="8fac53553b"><path d="M 124 92 L 153 92 L 153 137.976562 L 124 137.976562 Z M 124 92 " clip-rule="nonzero"/></clipPath><clipPath id="3c65432263"><path d="M 151.148438 74 L 162.96875 74 L 162.96875 84 L 151.148438 84 Z M 151.148438 74 " clip-rule="nonzero"/></clipPath><clipPath id="ddc93462fc"><path d="M 151.148438 67 L 162.96875 67 L 162.96875 77 L 151.148438 77 Z M 151.148438 67 " clip-rule="nonzero"/></clipPath><clipPath id="e88f05f0c2"><path d="M 151.148438 59 L 162.96875 59 L 162.96875 70 L 151.148438 70 Z M 151.148438 59 " clip-rule="nonzero"/></clipPath><clipPath id="712e4d9ef2"><path d="M 151.148438 52 L 162.96875 52 L 162.96875 62.886719 L 151.148438 62.886719 Z M 151.148438 52 " clip-rule="nonzero"/></clipPath><clipPath id="a52f59ba10"><path d="M 151.148438 45 L 162.96875 45 L 162.96875 55.660156 L 151.148438 55.660156 Z M 151.148438 45 " clip-rule="nonzero"/></clipPath><clipPath id="7f23f1c44e"><path d="M 77.621094 92 L 81 92 L 81 97 L 77.621094 97 Z M 77.621094 92 " clip-rule="nonzero"/></clipPath><clipPath id="d34369f97a"><path d="M 77.621094 85 L 100 85 L 100 100 L 77.621094 100 Z M 77.621094 85 " clip-rule="nonzero"/></clipPath><clipPath id="b2c0822dc5"><path d="M 77.621094 77 L 81 77 L 81 82 L 77.621094 82 Z M 77.621094 77 " clip-rule="nonzero"/></clipPath><clipPath id="60a3a8f16f"><path d="M 77.621094 70 L 103 70 L 103 86 L 77.621094 86 Z M 77.621094 70 " clip-rule="nonzero"/></clipPath><clipPath id="768d484c90"><path d="M 124 92 L 153 92 L 153 137.976562 L 124 137.976562 Z M 124 92 " clip-rule="nonzero"/></clipPath><clipPath id="13000e7c61"><path d="M 77.621094 9 L 82 9 L 82 14 L 77.621094 14 Z M 77.621094 9 " clip-rule="nonzero"/></clipPath><clipPath id="8ece11861f"><path d="M 77.621094 31 L 103 31 L 103 54 L 77.621094 54 Z M 77.621094 31 " clip-rule="nonzero"/></clipPath><clipPath id="490dd42a90"><path d="M 77.621094 16 L 81 16 L 81 21 L 77.621094 21 Z M 77.621094 16 " clip-rule="nonzero"/></clipPath><clipPath id="b2fa856c2d"><path d="M 77.621094 23 L 81 23 L 81 28 L 77.621094 28 Z M 77.621094 23 " clip-rule="nonzero"/></clipPath></defs><path fill="#2b3894" d="M 78.078125 92.449219 L 88.238281 86.53125 C 88.523438 86.363281 88.917969 86.386719 89.351562 86.640625 L 79.191406 92.558594 C 78.757812 92.308594 78.363281 92.285156 78.078125 92.449219 " fill-opacity="1" fill-rule="nonzero"/><path fill="#2b3894" d="M 90.449219 90.34375 L 80.289062 96.261719 C 80.566406 96.097656 80.746094 95.753906 80.746094 95.257812 C 80.746094 94.273438 80.046875 93.054688 79.191406 92.558594 L 89.351562 86.640625 C 90.207031 87.132812 90.910156 88.351562 90.90625 89.339844 C 90.90625 89.832031 90.730469 90.179688 90.449219 90.34375 " fill-opacity="1" fill-rule="nonzero"/><g clip-path="url(#acd5140e52)"><path fill="#2b3894" d="M 79.191406 92.558594 C 80.046875 93.054688 80.746094 94.273438 80.746094 95.257812 C 80.742188 96.25 80.035156 96.652344 79.179688 96.160156 C 78.320312 95.65625 77.613281 94.441406 77.621094 93.449219 C 77.625 92.460938 78.332031 92.058594 79.191406 92.558594 " fill-opacity="1" fill-rule="nonzero"/></g><path fill="#2b3894" d="M 84.328125 96.070312 L 94.488281 90.144531 C 94.773438 89.984375 95.167969 90.003906 95.601562 90.253906 L 85.441406 96.175781 C 85.007812 95.921875 84.617188 95.898438 84.328125 96.070312 " fill-opacity="1" fill-rule="nonzero"/><path fill="#2b3894" d="M 96.699219 93.964844 L 86.535156 99.878906 C 86.816406 99.714844 86.992188 99.367188 86.996094 98.875 C 86.996094 97.886719 86.300781 96.671875 85.441406 96.175781 L 95.601562 90.253906 C 96.457031 90.75 97.15625 91.96875 97.15625 92.957031 C 97.15625 93.449219 96.976562 93.792969 96.699219 93.964844 " fill-opacity="1" fill-rule="nonzero"/><path fill="#2b3894" d="M 85.441406 96.175781 C 86.300781 96.671875 86.996094 97.886719 86.996094 98.875 C 86.992188 99.867188 86.289062 100.269531 85.433594 99.773438 C 84.570312 99.277344 83.867188 98.058594 83.871094 97.070312 C 83.871094 96.082031 84.582031 95.679688 85.441406 96.175781 " fill-opacity="1" fill-rule="nonzero"/><path fill="#2b3894" d="M 90.578125 99.6875 L 100.738281 93.765625 C 101.027344 93.601562 101.421875 93.625 101.855469 93.871094 L 91.6875 99.796875 C 91.253906 99.542969 90.859375 99.519531 90.578125 99.6875 " fill-opacity="1" fill-rule="nonzero"/><path fill="#2b3894" d="M 102.945312 97.578125 L 92.785156 103.5 C 93.070312 103.335938 93.242188 102.984375 93.25 102.496094 C 93.25 101.507812 92.542969 100.285156 91.6875 99.796875 L 101.855469 93.871094 C 102.710938 94.371094 103.410156 95.589844 103.410156 96.570312 C 103.410156 97.070312 103.226562 97.414062 102.945312 97.578125 " fill-opacity="1" fill-rule="nonzero"/><path fill="#2b3894" d="M 91.6875 99.796875 C 92.542969 100.285156 93.25 101.507812 93.25 102.496094 C 93.242188 103.484375 92.535156 103.890625 91.683594 103.390625 C 90.820312 102.894531 90.117188 101.675781 90.125 100.683594 C 90.125 99.699219 90.832031 99.292969 91.6875 99.796875 " fill-opacity="1" fill-rule="nonzero"/><path fill="#2b3894" d="M 96.832031 103.300781 L 106.988281 97.386719 C 107.273438 97.214844 107.664062 97.238281 108.105469 97.492188 L 97.941406 103.410156 C 97.507812 103.160156 97.113281 103.136719 96.832031 103.300781 " fill-opacity="1" fill-rule="nonzero"/><path fill="#2b3894" d="M 109.199219 101.195312 L 99.039062 107.117188 C 99.320312 106.953125 99.496094 106.605469 99.496094 106.113281 C 99.5 105.125 98.796875 103.90625 97.941406 103.410156 L 108.105469 97.492188 C 108.957031 97.988281 109.660156 99.203125 109.660156 100.191406 C 109.652344 100.683594 109.480469 101.03125 109.199219 101.195312 " fill-opacity="1" fill-rule="nonzero"/><path fill="#2b3894" d="M 97.941406 103.410156 C 98.796875 103.90625 99.5 105.125 99.496094 106.113281 C 99.496094 107.101562 98.785156 107.507812 97.929688 107.011719 C 97.066406 106.515625 96.367188 105.296875 96.367188 104.300781 C 96.375 103.320312 97.078125 102.914062 97.941406 103.410156 " fill-opacity="1" fill-rule="nonzero"/><path fill="#2b3894" d="M 78.09375 85.246094 L 88.257812 79.328125 C 88.539062 79.160156 88.933594 79.1875 89.375 79.433594 L 79.207031 85.359375 C 78.773438 85.105469 78.382812 85.082031 78.09375 85.246094 " fill-opacity="1" fill-rule="nonzero"/><path fill="#2b3894" d="M 79.207031 85.359375 L 89.375 79.433594 L 108.121094 90.289062 L 97.960938 96.210938 L 79.207031 85.359375 " fill-opacity="1" fill-rule="nonzero"/><path fill="#2b3894" d="M 109.21875 93.996094 L 99.0625 99.917969 C 99.34375 99.757812 99.515625 99.40625 99.515625 98.910156 C 99.515625 97.921875 98.824219 96.707031 97.960938 96.210938 L 108.121094 90.289062 C 108.984375 90.789062 109.683594 92 109.675781 92.992188 C 109.675781 93.488281 109.5 93.832031 109.21875 93.996094 " fill-opacity="1" fill-rule="nonzero"/><g clip-path="url(#dcf119d1eb)"><path fill="#2b3894" d="M 97.960938 96.210938 C 98.824219 96.707031 99.515625 97.921875 99.515625 98.910156 C 99.511719 99.910156 98.8125 100.308594 97.949219 99.8125 L 79.199219 88.953125 C 78.335938 88.457031 77.636719 87.246094 77.644531 86.25 C 77.644531 85.257812 78.347656 84.855469 79.207031 85.359375 L 97.960938 96.210938 " fill-opacity="1" fill-rule="nonzero"/></g><path fill="#2b3894" d="M 78.117188 78.050781 L 88.28125 72.128906 C 88.5625 71.964844 88.957031 71.984375 89.390625 72.238281 L 79.230469 78.160156 C 78.796875 77.90625 78.402344 77.882812 78.117188 78.050781 " fill-opacity="1" fill-rule="nonzero"/><path fill="#2b3894" d="M 90.488281 75.941406 L 80.328125 81.863281 C 80.609375 81.699219 80.785156 81.347656 80.785156 80.859375 C 80.792969 79.871094 80.085938 78.652344 79.230469 78.160156 L 89.390625 72.238281 C 90.246094 72.734375 90.949219 73.953125 90.945312 74.933594 C 90.945312 75.433594 90.769531 75.777344 90.488281 75.941406 " fill-opacity="1" fill-rule="nonzero"/><g clip-path="url(#61fc0e2522)"><path fill="#2b3894" d="M 79.230469 78.160156 C 80.085938 78.652344 80.792969 79.871094 80.785156 80.859375 C 80.785156 81.847656 80.074219 82.253906 79.21875 81.757812 C 78.359375 81.257812 77.660156 80.039062 77.660156 79.046875 C 77.664062 78.0625 78.371094 77.65625 79.230469 78.160156 " fill-opacity="1" fill-rule="nonzero"/></g><path fill="#2b3894" d="M 84.367188 81.664062 L 94.527344 75.75 C 94.8125 75.578125 95.207031 75.601562 95.640625 75.855469 L 85.484375 81.773438 C 85.050781 81.523438 84.65625 81.503906 84.367188 81.664062 " fill-opacity="1" fill-rule="nonzero"/><path fill="#2b3894" d="M 96.742188 79.558594 L 86.574219 85.484375 C 86.855469 85.320312 87.035156 84.96875 87.035156 84.476562 C 87.035156 83.488281 86.339844 82.269531 85.484375 81.773438 L 95.640625 75.855469 C 96.5 76.347656 97.203125 77.566406 97.195312 78.554688 C 97.195312 79.046875 97.023438 79.394531 96.742188 79.558594 " fill-opacity="1" fill-rule="nonzero"/><path fill="#2b3894" d="M 85.484375 81.773438 C 86.339844 82.269531 87.035156 83.488281 87.035156 84.476562 C 87.03125 85.464844 86.328125 85.871094 85.472656 85.375 C 84.609375 84.878906 83.910156 83.660156 83.910156 82.664062 C 83.910156 81.683594 84.621094 81.277344 85.484375 81.773438 " fill-opacity="1" fill-rule="nonzero"/><path fill="#2b3894" d="M 90.617188 85.285156 L 100.777344 79.367188 C 101.066406 79.199219 101.460938 79.222656 101.894531 79.476562 L 91.734375 85.390625 C 91.300781 85.144531 90.898438 85.121094 90.617188 85.285156 " fill-opacity="1" fill-rule="nonzero"/><path fill="#2b3894" d="M 91.734375 85.390625 L 101.894531 79.476562 L 108.144531 83.089844 L 97.980469 89.011719 L 91.734375 85.390625 " fill-opacity="1" fill-rule="nonzero"/><path fill="#2b3894" d="M 109.238281 86.796875 L 99.078125 92.714844 C 99.359375 92.550781 99.535156 92.203125 99.539062 91.710938 C 99.539062 90.722656 98.835938 89.507812 97.980469 89.011719 L 108.144531 83.089844 C 109 83.585938 109.699219 84.804688 109.699219 85.792969 C 109.699219 86.285156 109.519531 86.628906 109.238281 86.796875 " fill-opacity="1" fill-rule="nonzero"/><path fill="#2b3894" d="M 97.980469 89.011719 C 98.835938 89.507812 99.539062 90.722656 99.539062 91.710938 C 99.535156 92.703125 98.828125 93.105469 97.972656 92.609375 L 91.722656 88.996094 C 90.859375 88.492188 90.15625 87.277344 90.164062 86.285156 C 90.164062 85.296875 90.871094 84.894531 91.734375 85.390625 L 97.980469 89.011719 " fill-opacity="1" fill-rule="nonzero"/><path fill="#c6731c" d="M 78.140625 70.847656 L 88.296875 64.925781 C 88.578125 64.761719 88.972656 64.785156 89.414062 65.039062 L 79.253906 70.953125 C 78.816406 70.707031 78.421875 70.683594 78.140625 70.847656 " fill-opacity="1" fill-rule="nonzero"/><path fill="#c6731c" d="M 109.265625 79.597656 L 99.105469 85.515625 C 99.171875 85.476562 99.234375 85.425781 99.292969 85.359375 L 109.449219 79.441406 C 109.394531 79.503906 109.332031 79.554688 109.265625 79.597656 " fill-opacity="1" fill-rule="nonzero"/><path fill="#c6731c" d="M 79.253906 70.953125 L 89.414062 65.039062 L 107.324219 75.402344 L 97.164062 81.328125 L 79.253906 70.953125 " fill-opacity="1" fill-rule="nonzero"/><path fill="#c6731c" d="M 102.433594 81.765625 L 112.59375 75.84375 L 109.449219 79.441406 L 99.292969 85.359375 L 102.433594 81.765625 " fill-opacity="1" fill-rule="nonzero"/><path fill="#c6731c" d="M 100.027344 78.101562 L 110.1875 72.1875 C 110.488281 72.011719 110.894531 72.054688 111.304688 72.292969 L 101.144531 78.214844 C 100.734375 77.980469 100.328125 77.929688 100.027344 78.101562 " fill-opacity="1" fill-rule="nonzero"/><path fill="#c6731c" d="M 101.144531 78.214844 L 111.304688 72.292969 C 111.601562 72.46875 111.902344 72.738281 112.164062 73.101562 C 112.886719 74.066406 113.070312 75.296875 112.59375 75.84375 L 102.433594 81.765625 C 102.914062 81.214844 102.722656 79.984375 102.007812 79.019531 C 101.742188 78.660156 101.4375 78.386719 101.144531 78.214844 " fill-opacity="1" fill-rule="nonzero"/><g clip-path="url(#f521220844)"><path fill="#c6731c" d="M 101.144531 78.214844 C 101.4375 78.386719 101.742188 78.660156 102.007812 79.019531 C 102.722656 79.984375 102.914062 81.214844 102.433594 81.765625 L 99.292969 85.359375 C 99 85.691406 98.507812 85.707031 97.992188 85.410156 L 79.242188 74.558594 C 78.375 74.054688 77.675781 72.847656 77.683594 71.847656 C 77.683594 70.859375 78.386719 70.457031 79.253906 70.953125 L 97.164062 81.328125 L 99.835938 78.261719 C 100.140625 77.917969 100.636719 77.921875 101.144531 78.214844 " fill-opacity="1" fill-rule="nonzero"/></g><path fill="#57268f" d="M 118.640625 84.121094 L 108.476562 90.042969 C 108.757812 89.882812 108.933594 89.53125 108.933594 89.039062 L 119.097656 83.121094 C 119.09375 83.613281 118.921875 83.957031 118.640625 84.121094 " fill-opacity="1" fill-rule="nonzero"/><path fill="#3b80cb" d="M 110.863281 67.003906 L 100.703125 72.917969 C 100.988281 72.757812 101.160156 72.410156 101.160156 71.914062 L 111.320312 65.996094 C 111.320312 66.488281 111.144531 66.839844 110.863281 67.003906 " fill-opacity="1" fill-rule="nonzero"/><path fill="#57268f" d="M 110.078125 86.652344 L 120.234375 80.726562 C 119.527344 81.140625 119.097656 81.960938 119.097656 83.121094 L 108.933594 89.039062 C 108.9375 87.875 109.367188 87.0625 110.078125 86.652344 " fill-opacity="1" fill-rule="nonzero"/><path fill="#c6731c" d="M 78.246094 31.246094 L 88.410156 25.324219 C 88.691406 25.160156 89.085938 25.179688 89.527344 25.433594 L 79.359375 31.351562 C 78.925781 31.105469 78.53125 31.074219 78.246094 31.246094 " fill-opacity="1" fill-rule="nonzero"/><path fill="#3b80cb" d="M 102.296875 69.527344 L 112.457031 63.605469 C 111.753906 64.015625 111.328125 64.835938 111.320312 65.996094 L 101.160156 71.914062 C 101.160156 70.757812 101.59375 69.9375 102.296875 69.527344 " fill-opacity="1" fill-rule="nonzero"/><path fill="#57268f" d="M 107.863281 82.839844 L 118.023438 76.917969 C 118.792969 76.472656 119.746094 76.300781 120.820312 76.453125 L 110.65625 82.371094 C 109.585938 82.226562 108.632812 82.386719 107.863281 82.839844 " fill-opacity="1" fill-rule="nonzero"/><path fill="#9d78c1" d="M 110.078125 86.652344 L 120.234375 80.726562 C 121.097656 80.226562 122.375 80.328125 123.800781 81.152344 L 113.636719 87.074219 C 112.214844 86.25 110.9375 86.148438 110.078125 86.652344 " fill-opacity="1" fill-rule="nonzero"/><path fill="#c6731c" d="M 127.664062 108.21875 L 137.824219 102.296875 L 137.789062 114.671875 L 127.625 120.597656 L 127.664062 108.21875 " fill-opacity="1" fill-rule="nonzero"/><path fill="#3b80cb" d="M 131.222656 116 L 141.382812 110.082031 C 141.671875 109.914062 142.0625 109.9375 142.496094 110.191406 L 132.339844 116.109375 C 131.90625 115.859375 131.511719 115.835938 131.222656 116 " fill-opacity="1" fill-rule="nonzero"/><path fill="#3b80cb" d="M 100.089844 65.714844 L 110.25 59.792969 C 111.023438 59.347656 111.96875 59.175781 113.039062 59.328125 L 102.878906 65.246094 C 101.808594 65.101562 100.855469 65.261719 100.089844 65.714844 " fill-opacity="1" fill-rule="nonzero"/><path fill="#9d78c1" d="M 116.761719 88.882812 L 126.925781 82.964844 C 129.503906 84.453125 131.605469 87.773438 131.59375 90.355469 L 121.433594 96.277344 C 121.441406 93.691406 119.347656 90.378906 116.761719 88.882812 " fill-opacity="1" fill-rule="nonzero"/><path fill="#57268f" d="M 125.359375 82.054688 C 126.824219 82.902344 128.152344 82.96875 129.140625 82.394531 L 118.980469 88.316406 C 117.996094 88.894531 116.660156 88.824219 115.199219 87.976562 C 118.585938 86.003906 121.96875 84.03125 125.355469 82.054688 C 121.96875 84.03125 118.585938 86.003906 115.195312 87.976562 C 113.304688 86.878906 111.636719 84.730469 110.65625 82.371094 L 120.820312 76.453125 C 121.796875 78.808594 123.460938 80.960938 125.359375 82.054688 " fill-opacity="1" fill-rule="nonzero"/><path fill="#57268f" d="M 134.71875 92.167969 C 134.71875 92.660156 134.546875 93.003906 134.265625 93.167969 L 124.105469 99.089844 C 124.386719 98.925781 124.554688 98.574219 124.5625 98.085938 C 124.570312 94.636719 122.585938 90.523438 119.757812 87.640625 L 129.921875 81.722656 C 132.742188 84.601562 134.730469 88.71875 134.71875 92.167969 " fill-opacity="1" fill-rule="nonzero"/><path fill="#c6731c" d="M 126.925781 78.582031 L 116.765625 84.503906 C 116.351562 84.742188 115.804688 84.71875 115.207031 84.375 L 125.367188 78.457031 C 125.96875 78.804688 126.515625 78.824219 126.925781 78.582031 " fill-opacity="1" fill-rule="nonzero"/><path fill="#c6731c" d="M 113.667969 78.125 L 123.828125 72.207031 C 123.34375 72.492188 123.039062 73.128906 123.035156 74.042969 C 123.027344 75.726562 124.078125 77.707031 125.367188 78.457031 L 115.207031 84.375 C 113.917969 83.628906 112.871094 81.648438 112.875 79.960938 C 112.875 79.050781 113.183594 78.40625 113.667969 78.125 " fill-opacity="1" fill-rule="nonzero"/><path fill="#68bdca" d="M 121.621094 68.390625 C 120.808594 68.867188 120.234375 69.769531 120.011719 71.027344 C 118.320312 72.015625 116.625 73 114.929688 73.988281 C 114.433594 74.28125 113.933594 74.570312 113.4375 74.855469 C 113.144531 75.03125 112.75 75.257812 112.457031 75.433594 C 112.171875 75.597656 111.789062 75.816406 111.5 75.984375 C 111.367188 76.066406 111.179688 76.175781 111.039062 76.257812 L 109.851562 76.945312 C 110.078125 75.6875 110.652344 74.78125 111.457031 74.3125 C 114.507812 72.535156 118.574219 70.171875 121.621094 68.390625 " fill-opacity="1" fill-rule="nonzero"/><path fill="#cecdcb" d="M 123.828125 72.207031 C 124.246094 71.964844 124.792969 71.988281 125.390625 72.332031 L 115.222656 78.253906 C 114.625 77.90625 114.082031 77.882812 113.667969 78.125 C 116.714844 76.351562 120.78125 73.980469 123.828125 72.207031 " fill-opacity="1" fill-rule="nonzero"/><path fill="#cecdcb" d="M 127.71875 76.753906 C 127.714844 77.664062 127.410156 78.300781 126.933594 78.582031 L 116.765625 84.503906 C 117.25 84.222656 117.554688 83.578125 117.5625 82.671875 C 117.566406 80.984375 116.519531 79 115.222656 78.253906 L 125.390625 72.332031 C 126.679688 73.082031 127.726562 75.058594 127.71875 76.753906 " fill-opacity="1" fill-rule="nonzero"/><path fill="#c6731c" d="M 115.207031 84.375 C 116.503906 85.125 117.554688 84.359375 117.5625 82.671875 C 117.566406 80.984375 116.519531 79 115.222656 78.253906 C 113.933594 77.503906 112.878906 78.273438 112.875 79.960938 C 112.871094 81.648438 113.917969 83.628906 115.207031 84.375 Z M 120.597656 83.167969 C 120.65625 83.613281 120.691406 84.054688 120.6875 84.484375 C 120.6875 85.847656 120.34375 86.921875 119.757812 87.640625 C 118.773438 88.859375 117.09375 89.074219 115.199219 87.976562 C 113.304688 86.882812 111.636719 84.730469 110.65625 82.371094 C 110.082031 80.984375 109.742188 79.515625 109.75 78.152344 C 109.75 77.71875 109.785156 77.316406 109.851562 76.945312 C 110.09375 75.566406 110.761719 74.621094 111.699219 74.191406 C 112.578125 73.789062 113.691406 73.855469 114.914062 74.476562 C 115.019531 74.535156 115.128906 74.589844 115.234375 74.652344 C 115.347656 74.714844 115.453125 74.78125 115.5625 74.851562 C 116.785156 75.648438 117.894531 76.871094 118.773438 78.289062 C 119.695312 79.792969 120.359375 81.507812 120.597656 83.167969 " fill-opacity="1" fill-rule="nonzero"/><path fill="#57268f" d="M 119.757812 87.640625 C 122.585938 90.523438 124.570312 94.636719 124.5625 98.085938 C 124.554688 99.078125 123.855469 99.480469 122.996094 98.984375 C 122.128906 98.480469 121.429688 97.265625 121.433594 96.277344 C 121.441406 93.691406 119.347656 90.378906 116.761719 88.882812 L 113.636719 87.074219 C 111.050781 85.578125 108.945312 86.460938 108.933594 89.039062 C 108.933594 90.035156 108.230469 90.433594 107.367188 89.9375 C 106.503906 89.433594 105.808594 88.222656 105.808594 87.234375 C 105.820312 83.78125 107.824219 81.980469 110.65625 82.371094 C 111.636719 84.730469 113.304688 86.882812 115.199219 87.976562 C 117.09375 89.074219 118.773438 88.859375 119.757812 87.640625 " fill-opacity="1" fill-rule="nonzero"/><path fill="#68bdca" d="M 102.296875 69.527344 L 112.457031 63.605469 C 113.324219 63.101562 114.597656 63.203125 116.019531 64.027344 L 105.859375 69.949219 C 104.4375 69.125 103.160156 69.023438 102.296875 69.527344 " fill-opacity="1" fill-rule="nonzero"/><path fill="#3b80cb" d="M 78.269531 24.046875 L 88.433594 18.125 C 88.714844 17.960938 89.109375 17.980469 89.542969 18.234375 L 79.382812 24.152344 C 78.949219 23.90625 78.554688 23.882812 78.269531 24.046875 " fill-opacity="1" fill-rule="nonzero"/><path fill="#c6731c" d="M 124.996094 105.402344 L 135.152344 99.484375 C 135.4375 99.316406 135.835938 99.339844 136.269531 99.59375 C 137.132812 100.089844 137.824219 101.304688 137.824219 102.296875 L 127.664062 108.21875 C 127.664062 107.21875 126.964844 106.011719 126.109375 105.515625 C 125.671875 105.261719 125.277344 105.238281 124.996094 105.402344 " fill-opacity="1" fill-rule="nonzero"/><path fill="#3b80cb" d="M 90.640625 21.941406 L 80.480469 27.859375 C 80.761719 27.695312 80.9375 27.347656 80.9375 26.859375 C 80.945312 25.863281 80.238281 24.652344 79.382812 24.152344 L 89.542969 18.234375 C 90.398438 18.726562 91.101562 19.941406 91.101562 20.933594 C 91.097656 21.425781 90.921875 21.777344 90.640625 21.941406 " fill-opacity="1" fill-rule="nonzero"/><g clip-path="url(#2cc4484f47)"><path fill="#3b80cb" d="M 79.382812 24.152344 C 80.238281 24.652344 80.945312 25.863281 80.9375 26.859375 C 80.9375 27.847656 80.226562 28.246094 79.371094 27.753906 C 78.515625 27.253906 77.8125 26.039062 77.8125 25.046875 C 77.816406 24.058594 78.523438 23.65625 79.382812 24.152344 " fill-opacity="1" fill-rule="nonzero"/></g><path fill="#9d78c1" d="M 116.761719 88.882812 C 119.347656 90.378906 121.441406 93.691406 121.433594 96.277344 L 108.933594 89.039062 C 108.945312 86.460938 111.050781 85.578125 113.636719 87.074219 L 116.761719 88.882812 " fill-opacity="1" fill-rule="nonzero"/><path fill="#68bdca" d="M 108.984375 71.757812 C 109.996094 72.34375 110.933594 73.203125 111.699219 74.191406 C 110.761719 74.621094 110.09375 75.566406 109.851562 76.945312 L 101.160156 71.914062 C 101.167969 69.335938 103.277344 68.453125 105.859375 69.949219 L 108.984375 71.757812 " fill-opacity="1" fill-rule="nonzero"/><path fill="#68bdca" d="M 108.984375 71.757812 L 119.144531 65.832031 C 120.15625 66.421875 121.089844 67.285156 121.859375 68.273438 L 111.699219 74.191406 C 110.933594 73.203125 109.996094 72.34375 108.984375 71.757812 " fill-opacity="1" fill-rule="nonzero"/><path fill="#c6731c" d="M 111.457031 74.3125 L 121.621094 68.390625 C 121.695312 68.351562 121.773438 68.308594 121.859375 68.273438 C 122.734375 67.871094 123.851562 67.941406 125.074219 68.554688 C 125.179688 68.613281 125.289062 68.667969 125.398438 68.730469 C 125.507812 68.796875 125.613281 68.867188 125.722656 68.933594 C 126.941406 69.730469 128.058594 70.949219 128.929688 72.367188 C 129.859375 73.867188 130.519531 75.589844 130.753906 77.246094 L 120.597656 83.167969 C 120.359375 81.507812 119.695312 79.792969 118.773438 78.289062 C 117.894531 76.871094 116.785156 75.648438 115.5625 74.851562 C 115.453125 74.78125 115.347656 74.714844 115.234375 74.652344 C 115.128906 74.589844 115.019531 74.535156 114.914062 74.476562 C 113.691406 73.855469 112.578125 73.789062 111.699219 74.191406 C 111.613281 74.230469 111.535156 74.269531 111.457031 74.3125 " fill-opacity="1" fill-rule="nonzero"/><path fill="#3b80cb" d="M 117.582031 64.929688 C 119.046875 65.777344 120.375 65.84375 121.363281 65.273438 L 111.203125 71.191406 C 110.21875 71.769531 108.882812 71.699219 107.421875 70.851562 C 110.808594 68.882812 114.199219 66.90625 117.582031 64.929688 C 114.199219 66.90625 110.808594 68.878906 107.421875 70.851562 C 105.527344 69.757812 103.859375 67.605469 102.878906 65.246094 L 113.039062 59.328125 C 114.019531 61.683594 115.691406 63.835938 117.582031 64.929688 " fill-opacity="1" fill-rule="nonzero"/><path fill="#c6731c" d="M 119.15625 61.457031 L 108.996094 67.378906 C 108.578125 67.625 108.03125 67.601562 107.433594 67.25 L 117.59375 61.332031 C 118.191406 61.679688 118.738281 61.699219 119.15625 61.457031 " fill-opacity="1" fill-rule="nonzero"/><path fill="#c6731c" d="M 105.886719 61.007812 L 116.050781 55.089844 C 115.566406 55.371094 115.257812 56.007812 115.257812 56.914062 C 115.25 58.601562 116.300781 60.582031 117.59375 61.332031 L 107.433594 67.25 C 106.140625 66.503906 105.09375 64.523438 105.09375 62.835938 C 105.097656 61.925781 105.402344 61.289062 105.886719 61.007812 " fill-opacity="1" fill-rule="nonzero"/><path fill="#cecdcb" d="M 116.050781 55.089844 C 116.46875 54.847656 117.015625 54.867188 117.613281 55.214844 L 107.453125 61.136719 C 106.855469 60.785156 106.304688 60.761719 105.886719 61.007812 C 108.933594 59.234375 113 56.863281 116.050781 55.089844 " fill-opacity="1" fill-rule="nonzero"/><path fill="#cecdcb" d="M 119.941406 59.628906 C 119.941406 60.539062 119.640625 61.175781 119.15625 61.457031 L 108.996094 67.378906 C 109.472656 67.097656 109.785156 66.453125 109.785156 65.550781 C 109.789062 63.863281 108.746094 61.882812 107.453125 61.136719 L 117.613281 55.214844 C 118.90625 55.964844 119.949219 57.945312 119.941406 59.628906 " fill-opacity="1" fill-rule="nonzero"/><path fill="#cecdcb" d="M 107.453125 61.136719 C 108.746094 61.882812 109.789062 63.863281 109.785156 65.550781 C 109.777344 67.234375 108.722656 68 107.433594 67.25 C 106.140625 66.503906 105.09375 64.523438 105.09375 62.835938 C 105.097656 61.148438 106.15625 60.386719 107.453125 61.136719 " fill-opacity="1" fill-rule="nonzero"/><path fill="#c6731c" d="M 107.433594 67.25 C 108.722656 68 109.777344 67.234375 109.785156 65.550781 C 109.789062 63.863281 108.746094 61.882812 107.453125 61.136719 C 106.15625 60.386719 105.097656 61.148438 105.09375 62.835938 C 105.09375 64.523438 106.140625 66.503906 107.433594 67.25 Z M 111.1875 61.492188 C 112.25 63.328125 112.914062 65.445312 112.910156 67.359375 C 112.902344 68.726562 112.566406 69.796875 111.980469 70.515625 C 110.996094 71.738281 109.316406 71.949219 107.421875 70.851562 C 105.527344 69.757812 103.859375 67.605469 102.878906 65.246094 C 102.296875 63.851562 101.964844 62.390625 101.972656 61.027344 C 101.976562 57.957031 103.707031 56.359375 106.039062 56.941406 C 106.488281 57.054688 106.96875 57.246094 107.464844 57.535156 C 108.089844 57.894531 108.683594 58.375 109.242188 58.933594 C 109.976562 59.664062 110.632812 60.539062 111.1875 61.492188 " fill-opacity="1" fill-rule="nonzero"/><path fill="#3b80cb" d="M 102.878906 65.246094 C 103.859375 67.605469 105.527344 69.757812 107.421875 70.851562 C 109.316406 71.949219 110.996094 71.738281 111.980469 70.515625 C 113.117188 71.675781 114.121094 73.039062 114.914062 74.476562 C 113.691406 73.855469 112.578125 73.789062 111.699219 74.191406 C 110.933594 73.203125 109.996094 72.34375 108.984375 71.757812 L 105.859375 69.949219 C 103.277344 68.453125 101.167969 69.335938 101.160156 71.914062 C 101.15625 72.914062 100.457031 73.308594 99.589844 72.808594 C 98.726562 72.308594 98.03125 71.101562 98.035156 70.109375 C 98.046875 66.664062 100.046875 64.855469 102.878906 65.246094 " fill-opacity="1" fill-rule="nonzero"/><path fill="#68bdca" d="M 107.421875 70.851562 Z M 112.902344 67.65625 C 114.464844 66.75 116.023438 65.839844 117.582031 64.929688 C 116.023438 65.839844 114.464844 66.75 112.902344 67.65625 Z M 117.582031 64.929688 Z M 106.726562 70.394531 C 106.550781 70.265625 106.382812 70.136719 106.21875 69.988281 C 106.15625 69.945312 106.101562 69.894531 106.042969 69.835938 L 105.859375 69.949219 L 107.421875 70.851562 C 107.1875 70.710938 106.949219 70.558594 106.726562 70.394531 Z M 109.308594 71.535156 C 109.292969 71.53125 109.28125 71.53125 109.269531 71.53125 C 109.21875 71.523438 109.175781 71.515625 109.125 71.507812 C 109.117188 71.507812 109.113281 71.507812 109.113281 71.503906 C 109.066406 71.496094 109.023438 71.484375 108.976562 71.480469 C 108.960938 71.472656 108.945312 71.472656 108.933594 71.46875 C 108.894531 71.457031 108.859375 71.453125 108.824219 71.441406 C 108.808594 71.433594 108.792969 71.433594 108.78125 71.429688 C 108.734375 71.417969 108.691406 71.40625 108.652344 71.394531 C 108.640625 71.390625 108.632812 71.390625 108.628906 71.390625 C 108.578125 71.371094 108.527344 71.355469 108.476562 71.339844 C 108.460938 71.332031 108.449219 71.328125 108.433594 71.320312 C 108.398438 71.3125 108.359375 71.300781 108.320312 71.28125 C 108.300781 71.277344 108.285156 71.269531 108.269531 71.261719 C 108.230469 71.25 108.191406 71.230469 108.148438 71.214844 C 108.140625 71.207031 108.128906 71.203125 108.117188 71.199219 C 108.058594 71.175781 108.007812 71.152344 107.957031 71.128906 C 107.949219 71.125 107.9375 71.117188 107.925781 71.117188 C 107.878906 71.097656 107.839844 71.074219 107.796875 71.050781 C 107.777344 71.046875 107.761719 71.039062 107.75 71.027344 C 107.710938 71.003906 107.671875 70.988281 107.632812 70.964844 C 107.613281 70.960938 107.597656 70.949219 107.585938 70.945312 C 107.53125 70.914062 107.480469 70.886719 107.421875 70.851562 L 108.984375 71.757812 L 109.351562 71.542969 C 109.339844 71.535156 109.320312 71.535156 109.308594 71.535156 " fill-opacity="1" fill-rule="nonzero"/><path fill="#c6731c" d="M 127.625 120.597656 L 137.789062 114.671875 L 159.664062 127.335938 L 149.503906 133.253906 L 127.625 120.597656 " fill-opacity="1" fill-rule="nonzero"/><path fill="#3b80cb" d="M 132.339844 116.109375 L 142.496094 110.191406 L 148.75 113.804688 L 138.582031 119.726562 L 132.339844 116.109375 " fill-opacity="1" fill-rule="nonzero"/><path fill="#3b80cb" d="M 131.238281 108.796875 L 141.398438 102.878906 C 141.6875 102.714844 142.082031 102.738281 142.519531 102.984375 L 132.355469 108.910156 C 131.921875 108.65625 131.527344 108.632812 131.238281 108.796875 " fill-opacity="1" fill-rule="nonzero"/><path fill="#c6731c" d="M 79.359375 31.351562 L 89.527344 25.433594 L 108.273438 36.289062 L 98.113281 42.210938 L 79.359375 31.351562 " fill-opacity="1" fill-rule="nonzero"/><path fill="#3b80cb" d="M 84.519531 27.664062 L 94.679688 21.742188 C 94.964844 21.578125 95.359375 21.601562 95.792969 21.851562 L 85.632812 27.773438 C 85.199219 27.519531 84.808594 27.496094 84.519531 27.664062 " fill-opacity="1" fill-rule="nonzero"/><path fill="#3b80cb" d="M 78.289062 16.847656 L 88.449219 10.925781 C 88.738281 10.761719 89.132812 10.785156 89.566406 11.03125 L 79.40625 16.953125 C 78.972656 16.699219 78.574219 16.679688 78.289062 16.847656 " fill-opacity="1" fill-rule="nonzero"/><path fill="#3b80cb" d="M 149.839844 117.511719 L 139.683594 123.429688 C 139.964844 123.265625 140.136719 122.921875 140.144531 122.425781 C 140.144531 121.441406 139.445312 120.222656 138.582031 119.726562 L 148.75 113.804688 C 149.605469 114.300781 150.304688 115.519531 150.304688 116.507812 C 150.304688 117 150.125 117.351562 149.839844 117.511719 " fill-opacity="1" fill-rule="nonzero"/><path fill="#3b80cb" d="M 138.582031 119.726562 C 139.445312 120.222656 140.144531 121.441406 140.144531 122.425781 C 140.136719 123.417969 139.433594 123.820312 138.578125 123.328125 L 132.328125 119.710938 C 131.464844 119.214844 130.761719 117.992188 130.765625 117 C 130.765625 116.011719 131.476562 115.609375 132.339844 116.109375 L 138.582031 119.726562 " fill-opacity="1" fill-rule="nonzero"/><path fill="#3b80cb" d="M 96.890625 25.558594 L 86.734375 31.476562 C 87.015625 31.3125 87.1875 30.960938 87.1875 30.472656 C 87.1875 29.484375 86.492188 28.269531 85.632812 27.773438 L 95.792969 21.851562 C 96.648438 22.347656 97.355469 23.5625 97.347656 24.554688 C 97.347656 25.046875 97.175781 25.394531 96.890625 25.558594 " fill-opacity="1" fill-rule="nonzero"/><path fill="#3b80cb" d="M 85.632812 27.773438 C 86.492188 28.269531 87.1875 29.484375 87.1875 30.472656 C 87.1875 31.464844 86.480469 31.867188 85.625 31.375 C 84.761719 30.871094 84.0625 29.652344 84.0625 28.664062 C 84.070312 27.671875 84.773438 27.277344 85.632812 27.773438 " fill-opacity="1" fill-rule="nonzero"/><path fill="#3b80cb" d="M 90.664062 14.742188 L 80.503906 20.660156 C 80.78125 20.496094 80.960938 20.144531 80.960938 19.652344 C 80.960938 18.664062 80.261719 17.453125 79.40625 16.953125 L 89.566406 11.03125 C 90.421875 11.527344 91.125 12.742188 91.121094 13.734375 C 91.121094 14.226562 90.945312 14.578125 90.664062 14.742188 " fill-opacity="1" fill-rule="nonzero"/><g clip-path="url(#caefdfcfb8)"><path fill="#3b80cb" d="M 79.40625 16.953125 C 80.261719 17.453125 80.960938 18.664062 80.960938 19.652344 C 80.953125 20.648438 80.25 21.046875 79.394531 20.558594 C 78.53125 20.054688 77.828125 18.835938 77.835938 17.847656 C 77.839844 16.851562 78.542969 16.457031 79.40625 16.953125 " fill-opacity="1" fill-rule="nonzero"/></g><path fill="#cecdcb" d="M 115.222656 78.253906 C 116.519531 79 117.566406 80.984375 117.5625 82.671875 C 117.554688 84.359375 116.503906 85.125 115.207031 84.375 C 113.917969 83.628906 112.871094 81.648438 112.875 79.960938 C 112.878906 78.273438 113.933594 77.503906 115.222656 78.253906 " fill-opacity="1" fill-rule="nonzero"/><path fill="#3b80cb" d="M 122.144531 64.597656 C 123.28125 65.761719 124.285156 67.121094 125.074219 68.554688 C 123.378906 69.542969 121.6875 70.53125 119.992188 71.519531 C 118.691406 72.277344 117.398438 73.03125 116.101562 73.785156 L 114.914062 74.476562 C 114.121094 73.039062 113.117188 71.675781 111.980469 70.515625 C 115.03125 68.742188 119.09375 66.371094 122.144531 64.597656 " fill-opacity="1" fill-rule="nonzero"/><path fill="#c6731c" d="M 129.140625 82.394531 L 118.980469 88.316406 C 119.273438 88.148438 119.53125 87.921875 119.757812 87.640625 C 120.34375 86.921875 120.6875 85.847656 120.6875 84.484375 C 120.691406 84.054688 120.65625 83.613281 120.597656 83.167969 L 130.753906 77.246094 C 130.816406 77.691406 130.851562 78.132812 130.851562 78.566406 C 130.847656 79.925781 130.503906 81 129.921875 81.722656 C 129.691406 82 129.433594 82.226562 129.140625 82.394531 " fill-opacity="1" fill-rule="nonzero"/><path fill="#c6731c" d="M 112.488281 47.203125 L 102.328125 53.125 C 102.839844 52.824219 102.933594 51.933594 102.519531 50.96875 L 112.679688 45.042969 C 113.09375 46.011719 113 46.902344 112.488281 47.203125 " fill-opacity="1" fill-rule="nonzero"/><g clip-path="url(#8d31dd708c)"><path fill="#c6731c" d="M 162.328125 131.949219 L 152.167969 137.867188 C 152.449219 137.703125 152.625 137.359375 152.625 136.863281 L 162.785156 130.941406 C 162.785156 131.4375 162.609375 131.785156 162.328125 131.949219 " fill-opacity="1" fill-rule="nonzero"/></g><path fill="#3b80cb" d="M 143.726562 123.238281 L 153.886719 117.316406 C 154.167969 117.152344 154.5625 117.175781 154.996094 117.421875 L 144.835938 123.347656 C 144.402344 123.09375 144.007812 123.070312 143.726562 123.238281 " fill-opacity="1" fill-rule="nonzero"/><path fill="#3b80cb" d="M 131.261719 101.597656 L 141.421875 95.679688 C 141.710938 95.511719 142.105469 95.53125 142.539062 95.785156 L 132.378906 101.710938 C 131.9375 101.457031 131.550781 101.433594 131.261719 101.597656 " fill-opacity="1" fill-rule="nonzero"/><path fill="#3b80cb" d="M 90.769531 31.285156 L 100.929688 25.363281 C 101.21875 25.191406 101.613281 25.21875 102.046875 25.46875 L 91.886719 31.390625 C 91.453125 31.136719 91.058594 31.117188 90.769531 31.285156 " fill-opacity="1" fill-rule="nonzero"/><path fill="#3b80cb" d="M 84.542969 20.460938 L 94.703125 14.542969 C 94.984375 14.378906 95.382812 14.402344 95.816406 14.652344 L 85.65625 20.574219 C 85.21875 20.320312 84.824219 20.296875 84.542969 20.460938 " fill-opacity="1" fill-rule="nonzero"/><g clip-path="url(#4f73b5a4f3)"><path fill="#3b80cb" d="M 78.3125 9.644531 L 88.472656 3.726562 C 88.753906 3.5625 89.15625 3.585938 89.589844 3.832031 L 79.421875 9.753906 C 78.988281 9.5 78.59375 9.480469 78.3125 9.644531 " fill-opacity="1" fill-rule="nonzero"/></g><path fill="#3b80cb" d="M 156.09375 121.132812 L 145.933594 127.050781 C 146.214844 126.886719 146.390625 126.535156 146.394531 126.042969 C 146.394531 125.058594 145.695312 123.84375 144.835938 123.347656 L 154.996094 117.421875 C 155.863281 117.921875 156.554688 119.140625 156.554688 120.121094 C 156.550781 120.617188 156.378906 120.96875 156.09375 121.132812 " fill-opacity="1" fill-rule="nonzero"/><path fill="#3b80cb" d="M 144.835938 123.347656 C 145.695312 123.84375 146.394531 125.058594 146.394531 126.042969 C 146.390625 127.039062 145.683594 127.445312 144.824219 126.941406 C 143.96875 126.445312 143.265625 125.226562 143.265625 124.238281 C 143.269531 123.25 143.980469 122.84375 144.835938 123.347656 " fill-opacity="1" fill-rule="nonzero"/><path fill="#c6731c" d="M 99.410156 43.761719 L 109.570312 37.839844 L 112.679688 45.042969 L 102.519531 50.96875 L 99.410156 43.761719 " fill-opacity="1" fill-rule="nonzero"/><path fill="#c6731c" d="M 98.113281 42.210938 L 108.273438 36.289062 C 108.792969 36.585938 109.28125 37.167969 109.570312 37.839844 L 99.410156 43.761719 C 99.121094 43.085938 98.632812 42.507812 98.113281 42.210938 " fill-opacity="1" fill-rule="nonzero"/><g clip-path="url(#75f8a99d65)"><path fill="#c6731c" d="M 98.113281 42.210938 C 98.632812 42.507812 99.121094 43.085938 99.410156 43.761719 L 102.519531 50.96875 C 102.996094 52.066406 102.800781 53.078125 102.078125 53.214844 C 101.816406 53.265625 101.511719 53.1875 101.210938 53.015625 C 100.703125 52.722656 100.214844 52.160156 99.910156 51.457031 L 97.265625 45.320312 L 79.355469 34.953125 C 78.488281 34.453125 77.789062 33.242188 77.796875 32.246094 C 77.796875 31.25 78.5 30.855469 79.359375 31.351562 L 98.113281 42.210938 " fill-opacity="1" fill-rule="nonzero"/></g><path fill="#3b80cb" d="M 103.144531 29.171875 L 92.984375 35.097656 C 93.261719 34.933594 93.441406 34.582031 93.441406 34.089844 C 93.441406 33.097656 92.742188 31.882812 91.886719 31.390625 L 102.046875 25.46875 C 102.902344 25.964844 103.605469 27.179688 103.601562 28.167969 C 103.601562 28.664062 103.425781 29.007812 103.144531 29.171875 " fill-opacity="1" fill-rule="nonzero"/><path fill="#3b80cb" d="M 91.886719 31.390625 C 92.742188 31.882812 93.441406 33.097656 93.441406 34.089844 C 93.433594 35.085938 92.730469 35.484375 91.875 34.988281 C 91.011719 34.492188 90.308594 33.273438 90.316406 32.285156 C 90.316406 31.289062 91.023438 30.890625 91.886719 31.390625 " fill-opacity="1" fill-rule="nonzero"/><path fill="#3b80cb" d="M 96.914062 18.355469 L 86.75 24.277344 C 87.03125 24.113281 87.207031 23.765625 87.210938 23.273438 C 87.210938 22.277344 86.511719 21.066406 85.65625 20.574219 L 95.816406 14.652344 C 96.671875 15.148438 97.371094 16.363281 97.371094 17.351562 C 97.371094 17.847656 97.195312 18.191406 96.914062 18.355469 " fill-opacity="1" fill-rule="nonzero"/><path fill="#3b80cb" d="M 85.65625 20.574219 C 86.511719 21.066406 87.210938 22.277344 87.210938 23.273438 C 87.207031 24.265625 86.5 24.667969 85.644531 24.171875 C 84.785156 23.671875 84.082031 22.453125 84.085938 21.464844 C 84.085938 20.472656 84.796875 20.070312 85.65625 20.574219 " fill-opacity="1" fill-rule="nonzero"/><g clip-path="url(#621b20635d)"><path fill="#3b80cb" d="M 79.421875 9.753906 C 80.277344 10.246094 80.984375 11.460938 80.984375 12.453125 C 80.976562 13.441406 80.269531 13.847656 79.410156 13.351562 C 78.554688 12.855469 77.851562 11.636719 77.851562 10.640625 C 77.855469 9.652344 78.566406 9.253906 79.421875 9.753906 " fill-opacity="1" fill-rule="nonzero"/></g><g clip-path="url(#e4c6830a4e)"><path fill="#3b80cb" d="M 90.679688 7.535156 L 80.519531 13.460938 C 80.800781 13.296875 80.976562 12.945312 80.984375 12.453125 C 80.984375 11.460938 80.277344 10.246094 79.421875 9.753906 L 89.589844 3.832031 C 90.445312 4.328125 91.140625 5.542969 91.140625 6.53125 C 91.136719 7.027344 90.960938 7.371094 90.679688 7.535156 " fill-opacity="1" fill-rule="nonzero"/></g><path fill="#25833b" d="M 125.875 68.835938 C 126.644531 68.390625 127.597656 68.222656 128.667969 68.367188 L 118.5 74.292969 C 117.4375 74.144531 116.484375 74.308594 115.714844 74.761719 C 118.761719 72.980469 122.828125 70.617188 125.875 68.835938 " fill-opacity="1" fill-rule="nonzero"/><path fill="#c6731c" d="M 128.160156 92.589844 L 138.320312 86.667969 C 138.601562 86.503906 139 86.527344 139.433594 86.777344 L 129.273438 92.699219 C 128.835938 92.445312 128.441406 92.421875 128.160156 92.589844 " fill-opacity="1" fill-rule="nonzero"/><path fill="#c6731c" d="M 103.679688 57.195312 L 113.839844 51.277344 C 114.492188 50.894531 115.300781 50.796875 116.199219 51.019531 C 116.652344 51.132812 117.132812 51.328125 117.621094 51.617188 C 118.246094 51.976562 118.84375 52.453125 119.40625 53.011719 C 120.132812 53.746094 120.800781 54.621094 121.351562 55.570312 L 111.1875 61.492188 C 110.632812 60.539062 109.976562 59.664062 109.242188 58.933594 C 108.683594 58.375 108.089844 57.894531 107.464844 57.535156 C 106.96875 57.246094 106.488281 57.054688 106.039062 56.941406 C 105.144531 56.714844 104.332031 56.816406 103.679688 57.195312 " fill-opacity="1" fill-rule="nonzero"/><path fill="#c6731c" d="M 121.363281 65.273438 L 111.203125 71.191406 C 111.496094 71.023438 111.753906 70.796875 111.980469 70.515625 C 112.566406 69.796875 112.902344 68.726562 112.910156 67.359375 C 112.914062 65.445312 112.25 63.328125 111.1875 61.492188 L 121.351562 55.570312 C 122.414062 57.402344 123.078125 59.519531 123.074219 61.433594 C 123.070312 62.800781 122.726562 63.875 122.144531 64.597656 C 121.914062 64.875 121.65625 65.101562 121.363281 65.273438 " fill-opacity="1" fill-rule="nonzero"/><path fill="#74cb65" d="M 128.929688 72.367188 C 129.695312 72.265625 130.636719 72.484375 131.644531 73.070312 L 121.484375 78.988281 C 120.472656 78.40625 119.539062 78.1875 118.773438 78.289062 C 121.816406 76.511719 125.597656 73.507812 128.929688 72.367188 " fill-opacity="1" fill-rule="nonzero"/><path fill="#2b3894" d="M 120.316406 51.925781 C 119.914062 52.164062 119.597656 52.527344 119.40625 53.011719 C 117.710938 54 116.019531 54.988281 114.328125 55.976562 C 113.664062 56.359375 113 56.742188 112.339844 57.132812 C 112.046875 57.300781 111.660156 57.523438 111.371094 57.691406 C 111.089844 57.863281 110.710938 58.074219 110.429688 58.238281 L 109.242188 58.933594 C 109.441406 58.449219 109.75 58.082031 110.15625 57.851562 C 113.203125 56.070312 117.269531 53.707031 120.316406 51.925781 " fill-opacity="1" fill-rule="nonzero"/><path fill="#3b80cb" d="M 132.355469 108.910156 L 142.519531 102.984375 L 155.015625 110.222656 L 144.859375 116.140625 L 132.355469 108.910156 " fill-opacity="1" fill-rule="nonzero"/><path fill="#74cb65" d="M 124.613281 80.800781 L 134.769531 74.878906 C 137.355469 76.375 139.457031 79.695312 139.445312 82.277344 L 129.285156 88.199219 C 129.292969 85.613281 127.195312 82.296875 124.613281 80.800781 " fill-opacity="1" fill-rule="nonzero"/><path fill="#74cb65" d="M 124.613281 80.800781 C 127.195312 82.296875 129.292969 85.613281 129.285156 88.199219 L 120.597656 83.167969 C 120.359375 81.507812 119.695312 79.792969 118.773438 78.289062 C 119.539062 78.1875 120.472656 78.40625 121.484375 78.988281 L 124.613281 80.800781 " fill-opacity="1" fill-rule="nonzero"/><path fill="#25833b" d="M 118.5 74.292969 C 119.480469 76.652344 121.152344 78.796875 123.050781 79.898438 C 124.945312 80.992188 126.621094 80.785156 127.609375 79.558594 C 130.433594 82.445312 132.421875 86.5625 132.410156 90.003906 C 132.40625 91.003906 131.707031 91.398438 130.839844 90.898438 C 129.980469 90.402344 129.285156 89.191406 129.285156 88.199219 C 129.292969 85.613281 127.195312 82.296875 124.613281 80.800781 L 121.484375 78.988281 C 120.472656 78.40625 119.539062 78.1875 118.773438 78.289062 C 117.894531 76.871094 116.785156 75.648438 115.5625 74.851562 C 116.355469 74.332031 117.363281 74.132812 118.5 74.292969 " fill-opacity="1" fill-rule="nonzero"/><path fill="#74cb65" d="M 121.484375 78.988281 L 131.644531 73.070312 L 134.769531 74.878906 L 124.613281 80.800781 L 121.484375 78.988281 " fill-opacity="1" fill-rule="nonzero"/><path fill="#3b80cb" d="M 97.023438 34.898438 L 107.179688 28.980469 C 107.46875 28.8125 107.863281 28.835938 108.296875 29.089844 L 98.132812 35.003906 C 97.699219 34.757812 97.304688 34.734375 97.023438 34.898438 " fill-opacity="1" fill-rule="nonzero"/><path fill="#3b80cb" d="M 90.789062 24.082031 L 100.953125 18.164062 C 101.234375 17.992188 101.632812 18.015625 102.066406 18.269531 L 91.902344 24.1875 C 91.46875 23.9375 91.074219 23.917969 90.789062 24.082031 " fill-opacity="1" fill-rule="nonzero"/><path fill="#3b80cb" d="M 84.558594 13.261719 L 94.71875 7.34375 C 95.003906 7.175781 95.398438 7.199219 95.832031 7.453125 L 85.675781 13.371094 C 85.242188 13.121094 84.847656 13.097656 84.558594 13.261719 " fill-opacity="1" fill-rule="nonzero"/><path fill="#3b80cb" d="M 156.117188 113.933594 L 145.957031 119.851562 C 146.238281 119.6875 146.410156 119.34375 146.410156 118.847656 C 146.417969 117.851562 145.71875 116.644531 144.859375 116.140625 L 155.015625 110.222656 C 155.878906 110.722656 156.578125 111.933594 156.570312 112.921875 C 156.570312 113.421875 156.398438 113.769531 156.117188 113.933594 " fill-opacity="1" fill-rule="nonzero"/><path fill="#3b80cb" d="M 144.859375 116.140625 C 145.71875 116.644531 146.417969 117.851562 146.410156 118.847656 C 146.410156 119.839844 145.707031 120.242188 144.847656 119.742188 L 132.347656 112.511719 C 131.480469 112.007812 130.785156 110.792969 130.789062 109.800781 C 130.789062 108.808594 131.492188 108.40625 132.355469 108.910156 L 144.859375 116.140625 " fill-opacity="1" fill-rule="nonzero"/><path fill="#3b80cb" d="M 98.132812 35.003906 C 98.992188 35.503906 99.691406 36.714844 99.691406 37.710938 C 99.6875 38.699219 98.980469 39.105469 98.125 38.609375 C 97.265625 38.109375 96.558594 36.890625 96.566406 35.898438 C 96.566406 34.910156 97.273438 34.507812 98.132812 35.003906 " fill-opacity="1" fill-rule="nonzero"/><path fill="#3b80cb" d="M 109.390625 32.792969 L 99.230469 38.714844 C 99.511719 38.550781 99.6875 38.203125 99.691406 37.710938 C 99.691406 36.714844 98.992188 35.503906 98.132812 35.003906 L 108.296875 29.089844 C 109.152344 29.585938 109.851562 30.792969 109.851562 31.789062 C 109.851562 32.285156 109.671875 32.628906 109.390625 32.792969 " fill-opacity="1" fill-rule="nonzero"/><path fill="#3b80cb" d="M 91.902344 24.1875 C 92.757812 24.683594 93.460938 25.898438 93.457031 26.890625 C 93.457031 27.878906 92.746094 28.285156 91.890625 27.789062 C 91.035156 27.292969 90.332031 26.074219 90.335938 25.078125 C 90.335938 24.089844 91.046875 23.691406 91.902344 24.1875 " fill-opacity="1" fill-rule="nonzero"/><path fill="#3b80cb" d="M 103.160156 21.972656 L 93 27.898438 C 93.28125 27.734375 93.457031 27.382812 93.457031 26.890625 C 93.460938 25.898438 92.757812 24.683594 91.902344 24.1875 L 102.066406 18.269531 C 102.925781 18.765625 103.621094 19.980469 103.621094 20.96875 C 103.617188 21.464844 103.441406 21.808594 103.160156 21.972656 " fill-opacity="1" fill-rule="nonzero"/><path fill="#3b80cb" d="M 96.933594 11.15625 L 86.773438 17.078125 C 87.054688 16.914062 87.226562 16.566406 87.226562 16.074219 C 87.234375 15.082031 86.53125 13.867188 85.675781 13.371094 L 95.832031 7.453125 C 96.691406 7.949219 97.394531 9.164062 97.394531 10.152344 C 97.386719 10.640625 97.214844 10.992188 96.933594 11.15625 " fill-opacity="1" fill-rule="nonzero"/><path fill="#3b80cb" d="M 85.675781 13.371094 C 86.53125 13.867188 87.234375 15.082031 87.226562 16.074219 C 87.226562 17.0625 86.519531 17.46875 85.664062 16.972656 C 84.800781 16.476562 84.101562 15.253906 84.101562 14.261719 C 84.109375 13.273438 84.8125 12.871094 85.675781 13.371094 " fill-opacity="1" fill-rule="nonzero"/><path fill="#2b3894" d="M 118.101562 48.117188 C 118.871094 47.671875 119.832031 47.5 120.898438 47.652344 L 110.742188 53.570312 C 109.664062 53.421875 108.714844 53.585938 107.941406 54.039062 C 110.988281 52.261719 115.054688 49.894531 118.101562 48.117188 " fill-opacity="1" fill-rule="nonzero"/><path fill="#6777c4" d="M 120.316406 51.925781 C 121.175781 51.425781 122.453125 51.527344 123.878906 52.351562 L 113.71875 58.273438 C 112.296875 57.449219 111.015625 57.347656 110.15625 57.851562 C 113.203125 56.070312 117.269531 53.707031 120.316406 51.925781 " fill-opacity="1" fill-rule="nonzero"/><path fill="#25833b" d="M 133.210938 73.976562 C 134.667969 74.824219 136.003906 74.890625 136.988281 74.3125 L 126.832031 80.238281 C 125.84375 80.8125 124.511719 80.746094 123.050781 79.898438 C 126.4375 77.921875 129.820312 75.953125 133.207031 73.976562 C 129.820312 75.953125 126.4375 77.921875 123.050781 79.898438 C 121.152344 78.796875 119.480469 76.652344 118.5 74.292969 L 128.667969 68.367188 C 129.640625 70.730469 131.3125 72.878906 133.210938 73.976562 " fill-opacity="1" fill-rule="nonzero"/><path fill="#c6731c" d="M 134.777344 70.503906 L 124.617188 76.425781 C 124.199219 76.664062 123.652344 76.640625 123.058594 76.296875 L 133.222656 70.378906 C 133.820312 70.722656 134.367188 70.746094 134.777344 70.503906 " fill-opacity="1" fill-rule="nonzero"/><path fill="#c6731c" d="M 121.519531 70.050781 L 131.679688 64.128906 C 131.195312 64.410156 130.890625 65.054688 130.886719 65.964844 C 130.878906 67.644531 131.925781 69.628906 133.222656 70.378906 L 123.058594 76.296875 C 121.761719 75.550781 120.71875 73.570312 120.726562 71.882812 C 120.726562 70.976562 121.035156 70.332031 121.519531 70.050781 " fill-opacity="1" fill-rule="nonzero"/><path fill="#3b80cb" d="M 132.378906 101.710938 L 142.539062 95.785156 L 155.039062 103.023438 L 144.878906 108.941406 L 132.378906 101.710938 " fill-opacity="1" fill-rule="nonzero"/><path fill="#c6731c" d="M 119.300781 66.242188 L 129.464844 60.316406 C 129.476562 60.3125 129.496094 60.300781 129.511719 60.292969 C 130.0625 59.984375 130.726562 59.878906 131.460938 59.988281 C 132.015625 60.074219 132.621094 60.292969 133.25 60.65625 C 133.734375 60.945312 134.214844 61.300781 134.667969 61.707031 L 124.503906 67.628906 C 124.054688 67.21875 123.574219 66.863281 123.085938 66.578125 C 122.460938 66.21875 121.859375 65.996094 121.292969 65.90625 C 120.5625 65.792969 119.902344 65.90625 119.347656 66.210938 C 119.335938 66.222656 119.316406 66.234375 119.300781 66.242188 " fill-opacity="1" fill-rule="nonzero"/><path fill="#6777c4" d="M 116.84375 60.082031 C 118.929688 61.289062 120.691406 63.675781 121.292969 65.90625 C 120.5625 65.792969 119.902344 65.90625 119.347656 66.210938 L 111.1875 61.492188 C 110.632812 60.539062 109.976562 59.664062 109.242188 58.933594 C 109.855469 57.402344 111.636719 57.066406 113.71875 58.273438 L 116.84375 60.082031 " fill-opacity="1" fill-rule="nonzero"/><path fill="#6777c4" d="M 116.84375 60.082031 L 127.003906 54.164062 C 129.089844 55.367188 130.851562 57.757812 131.460938 59.988281 L 121.292969 65.90625 C 120.691406 63.675781 118.929688 61.289062 116.84375 60.082031 " fill-opacity="1" fill-rule="nonzero"/><path fill="#2b3894" d="M 119.839844 58.839844 C 122.222656 61.273438 124.007812 64.585938 124.503906 67.628906 C 124.054688 67.21875 123.574219 66.863281 123.085938 66.578125 C 122.460938 66.21875 121.859375 65.996094 121.292969 65.90625 C 120.691406 63.675781 118.929688 61.289062 116.84375 60.082031 L 113.71875 58.273438 C 111.636719 57.066406 109.855469 57.402344 109.242188 58.933594 C 108.683594 58.375 108.089844 57.894531 107.464844 57.535156 C 106.96875 57.246094 106.488281 57.054688 106.039062 56.941406 C 106.546875 54.472656 108.347656 53.242188 110.742188 53.570312 C 111.714844 55.929688 113.382812 58.074219 115.28125 59.175781 C 117.171875 60.273438 118.851562 60.058594 119.839844 58.839844 " fill-opacity="1" fill-rule="nonzero"/><path fill="#6777c4" d="M 113.71875 58.273438 L 123.878906 52.351562 L 127.003906 54.164062 L 116.84375 60.082031 L 113.71875 58.273438 " fill-opacity="1" fill-rule="nonzero"/><path fill="#3b80cb" d="M 156.136719 106.730469 L 145.972656 112.652344 C 146.253906 112.488281 146.429688 112.136719 146.433594 111.640625 C 146.433594 110.652344 145.734375 109.4375 144.878906 108.941406 L 155.039062 103.023438 C 155.902344 103.523438 156.601562 104.730469 156.59375 105.722656 C 156.59375 106.222656 156.417969 106.566406 156.136719 106.730469 " fill-opacity="1" fill-rule="nonzero"/><path fill="#3b80cb" d="M 144.878906 108.941406 C 145.734375 109.4375 146.433594 110.652344 146.433594 111.640625 C 146.429688 112.640625 145.726562 113.042969 144.867188 112.542969 L 132.367188 105.304688 C 131.5 104.808594 130.804688 103.59375 130.804688 102.601562 C 130.8125 101.609375 131.511719 101.207031 132.378906 101.710938 L 144.878906 108.941406 " fill-opacity="1" fill-rule="nonzero"/><path fill="#cecdcb" d="M 131.679688 64.128906 C 132.089844 63.890625 132.636719 63.914062 133.238281 64.257812 L 123.074219 70.175781 C 122.476562 69.832031 121.929688 69.808594 121.519531 70.050781 C 124.566406 68.273438 128.632812 65.90625 131.679688 64.128906 " fill-opacity="1" fill-rule="nonzero"/><path fill="#25833b" d="M 142.570312 84.089844 C 142.570312 84.578125 142.398438 84.921875 142.113281 85.085938 L 131.957031 91.011719 C 132.238281 90.847656 132.410156 90.503906 132.410156 90.003906 C 132.421875 86.5625 130.433594 82.445312 127.609375 79.558594 L 137.765625 73.640625 C 140.59375 76.527344 142.582031 80.644531 142.570312 84.089844 " fill-opacity="1" fill-rule="nonzero"/><path fill="#cecdcb" d="M 135.570312 68.671875 C 135.570312 69.582031 135.261719 70.222656 134.78125 70.503906 L 124.617188 76.425781 C 125.101562 76.144531 125.40625 75.5 125.410156 74.589844 C 125.417969 72.910156 124.371094 70.925781 123.074219 70.175781 L 133.238281 64.257812 C 134.527344 65.007812 135.578125 66.984375 135.570312 68.671875 " fill-opacity="1" fill-rule="nonzero"/><path fill="#c6731c" d="M 123.058594 76.296875 C 124.351562 77.046875 125.40625 76.277344 125.410156 74.589844 C 125.417969 72.910156 124.371094 70.925781 123.074219 70.175781 C 121.785156 69.429688 120.730469 70.191406 120.726562 71.882812 C 120.71875 73.570312 121.761719 75.550781 123.058594 76.296875 Z M 124.503906 67.628906 C 126.832031 69.742188 128.542969 73.332031 128.535156 76.402344 C 128.53125 77.765625 128.1875 78.84375 127.609375 79.558594 C 126.621094 80.785156 124.945312 80.992188 123.050781 79.898438 C 121.152344 78.796875 119.480469 76.652344 118.5 74.292969 C 117.925781 72.898438 117.589844 71.433594 117.59375 70.070312 C 117.601562 68.15625 118.277344 66.8125 119.347656 66.210938 C 119.902344 65.90625 120.5625 65.792969 121.292969 65.90625 C 121.859375 65.996094 122.460938 66.21875 123.085938 66.578125 C 123.574219 66.863281 124.054688 67.21875 124.503906 67.628906 " fill-opacity="1" fill-rule="nonzero"/><path fill="#cecdcb" d="M 123.074219 70.175781 C 124.371094 70.925781 125.417969 72.910156 125.410156 74.589844 C 125.40625 76.277344 124.351562 77.046875 123.058594 76.296875 C 121.761719 75.550781 120.71875 73.570312 120.726562 71.882812 C 120.730469 70.191406 121.785156 69.429688 123.074219 70.175781 " fill-opacity="1" fill-rule="nonzero"/><path fill="#2b3894" d="M 125.441406 53.253906 C 126.902344 54.101562 128.238281 54.167969 129.222656 53.59375 L 119.0625 59.515625 C 118.074219 60.089844 116.742188 60.023438 115.28125 59.175781 C 118.664062 57.199219 122.054688 55.230469 125.441406 53.253906 C 122.054688 55.230469 118.664062 57.199219 115.28125 59.175781 C 113.382812 58.074219 111.714844 55.929688 110.742188 53.570312 L 120.898438 47.652344 C 121.875 50.007812 123.546875 52.160156 125.441406 53.253906 " fill-opacity="1" fill-rule="nonzero"/><path fill="#c6731c" d="M 127.011719 49.78125 L 116.851562 55.703125 C 116.433594 55.941406 115.886719 55.917969 115.292969 55.574219 L 125.449219 49.65625 C 126.046875 50 126.59375 50.023438 127.011719 49.78125 " fill-opacity="1" fill-rule="nonzero"/><path fill="#c6731c" d="M 113.75 49.324219 L 123.90625 43.40625 C 123.429688 43.6875 123.121094 44.328125 123.113281 45.242188 C 123.113281 46.925781 124.160156 48.90625 125.449219 49.65625 L 115.292969 55.574219 C 113.996094 54.824219 112.953125 52.847656 112.953125 51.160156 C 112.960938 50.25 113.265625 49.605469 113.75 49.324219 " fill-opacity="1" fill-rule="nonzero"/><path fill="#c6731c" d="M 136.988281 74.3125 L 126.832031 80.238281 C 127.125 80.066406 127.382812 79.84375 127.609375 79.558594 C 128.1875 78.84375 128.53125 77.765625 128.535156 76.402344 C 128.542969 73.332031 126.832031 69.742188 124.503906 67.628906 L 134.667969 61.707031 C 136.988281 63.816406 138.703125 67.410156 138.695312 70.480469 C 138.691406 71.847656 138.347656 72.917969 137.765625 73.640625 C 137.542969 73.917969 137.28125 74.144531 136.988281 74.3125 " fill-opacity="1" fill-rule="nonzero"/><path fill="#cecdcb" d="M 123.90625 43.40625 C 124.324219 43.164062 124.871094 43.1875 125.46875 43.53125 L 115.308594 49.453125 C 114.710938 49.105469 114.164062 49.082031 113.75 49.324219 C 116.792969 47.550781 120.859375 45.179688 123.90625 43.40625 " fill-opacity="1" fill-rule="nonzero"/><path fill="#2b3894" d="M 130 52.921875 C 132.390625 55.355469 134.175781 58.664062 134.667969 61.707031 C 132.976562 62.695312 131.28125 63.683594 129.585938 64.664062 C 129.285156 64.839844 128.886719 65.078125 128.585938 65.253906 C 128.289062 65.421875 127.894531 65.652344 127.597656 65.828125 C 127.457031 65.914062 127.257812 66.027344 127.113281 66.109375 C 126.640625 66.386719 126.164062 66.65625 125.691406 66.933594 L 124.503906 67.628906 C 124.007812 64.585938 122.222656 61.273438 119.839844 58.839844 C 122.886719 57.066406 126.953125 54.695312 130 52.921875 " fill-opacity="1" fill-rule="nonzero"/><path fill="#cecdcb" d="M 127.800781 47.953125 C 127.800781 48.859375 127.496094 49.5 127.011719 49.78125 L 116.851562 55.703125 C 117.328125 55.421875 117.640625 54.777344 117.640625 53.875 C 117.644531 52.179688 116.597656 50.199219 115.308594 49.453125 L 125.46875 43.53125 C 126.761719 44.28125 127.804688 46.257812 127.800781 47.953125 " fill-opacity="1" fill-rule="nonzero"/><path fill="#c6731c" d="M 115.292969 55.574219 C 116.582031 56.324219 117.632812 55.558594 117.640625 53.875 C 117.644531 52.179688 116.597656 50.199219 115.308594 49.453125 C 114.011719 48.703125 112.960938 49.472656 112.953125 51.160156 C 112.953125 52.847656 113.996094 54.824219 115.292969 55.574219 Z M 115.320312 45.851562 C 118.332031 47.597656 120.78125 52.007812 120.769531 55.683594 C 120.765625 57.046875 120.421875 58.121094 119.839844 58.839844 C 118.851562 60.058594 117.171875 60.273438 115.28125 59.175781 C 113.382812 58.074219 111.714844 55.929688 110.742188 53.570312 C 110.160156 52.179688 109.828125 50.714844 109.828125 49.351562 C 109.839844 45.675781 112.300781 44.105469 115.320312 45.851562 " fill-opacity="1" fill-rule="nonzero"/><path fill="#cecdcb" d="M 115.308594 49.453125 C 116.597656 50.199219 117.644531 52.179688 117.640625 53.875 C 117.632812 55.558594 116.582031 56.324219 115.292969 55.574219 C 113.996094 54.824219 112.953125 52.847656 112.953125 51.160156 C 112.960938 49.472656 114.011719 48.703125 115.308594 49.453125 " fill-opacity="1" fill-rule="nonzero"/><path fill="#c6731c" d="M 111.539062 45.511719 L 121.699219 39.589844 C 122.6875 39.019531 124.015625 39.085938 125.480469 39.929688 L 115.320312 45.851562 C 113.855469 45.003906 112.527344 44.9375 111.539062 45.511719 " fill-opacity="1" fill-rule="nonzero"/><g clip-path="url(#db2136d691)"><path fill="#c6731c" d="M 152.703125 108.0625 L 162.867188 102.140625 L 162.785156 130.941406 L 152.625 136.863281 L 152.703125 108.0625 " fill-opacity="1" fill-rule="nonzero"/></g><path fill="#c6731c" d="M 129.273438 92.699219 L 139.433594 86.777344 L 161.308594 99.441406 L 151.148438 105.363281 L 129.273438 92.699219 " fill-opacity="1" fill-rule="nonzero"/><g clip-path="url(#5002c05952)"><path fill="#c6731c" d="M 151.148438 105.363281 L 161.308594 99.441406 C 162.167969 99.9375 162.867188 101.152344 162.867188 102.140625 L 152.703125 108.0625 C 152.707031 107.066406 152.011719 105.859375 151.148438 105.363281 " fill-opacity="1" fill-rule="nonzero"/></g><g clip-path="url(#8fac53553b)"><path fill="#c6731c" d="M 151.148438 105.363281 C 152.011719 105.859375 152.707031 107.066406 152.703125 108.0625 L 152.625 136.863281 C 152.617188 137.855469 151.914062 138.257812 151.058594 137.761719 L 126.054688 123.289062 C 125.191406 122.792969 124.492188 121.578125 124.5 120.585938 L 124.539062 106.40625 C 124.539062 105.414062 125.242188 105.011719 126.109375 105.515625 C 126.964844 106.011719 127.664062 107.21875 127.664062 108.21875 L 127.625 120.597656 L 149.503906 133.253906 L 149.570312 108.054688 L 129.261719 96.300781 C 128.394531 95.796875 127.699219 94.585938 127.703125 93.589844 C 127.703125 92.597656 128.40625 92.195312 129.273438 92.699219 L 151.148438 105.363281 " fill-opacity="1" fill-rule="nonzero"/></g><path fill="#c6731c" d="M 129.222656 53.59375 L 119.0625 59.515625 C 119.351562 59.347656 119.617188 59.121094 119.839844 58.839844 C 120.421875 58.121094 120.765625 57.046875 120.769531 55.683594 C 120.78125 52.007812 118.332031 47.597656 115.320312 45.851562 L 125.480469 39.929688 C 128.492188 41.671875 130.941406 46.089844 130.929688 49.765625 C 130.925781 51.125 130.585938 52.199219 130 52.921875 C 129.777344 53.199219 129.515625 53.421875 129.222656 53.59375 " fill-opacity="1" fill-rule="nonzero"/><path fill="#582690" d="M 132.917969 70.101562 L 143.082031 64.179688 C 143.363281 64.015625 143.757812 64.039062 144.1875 64.285156 L 134.027344 70.210938 C 133.59375 69.960938 133.199219 69.9375 132.917969 70.101562 " fill-opacity="1" fill-rule="nonzero"/><path fill="#582690" d="M 134.027344 70.210938 L 144.1875 64.285156 L 161.382812 74.242188 L 151.222656 80.160156 L 134.027344 70.210938 " fill-opacity="1" fill-rule="nonzero"/><g clip-path="url(#3c65432263)"><path fill="#582690" d="M 162.480469 77.949219 L 152.320312 83.867188 C 152.601562 83.703125 152.777344 83.355469 152.777344 82.863281 C 152.777344 81.867188 152.082031 80.65625 151.222656 80.160156 L 161.382812 74.242188 C 162.242188 74.738281 162.933594 75.945312 162.933594 76.941406 C 162.933594 77.4375 162.761719 77.785156 162.480469 77.949219 " fill-opacity="1" fill-rule="nonzero"/></g><path fill="#582690" d="M 151.222656 80.160156 C 152.082031 80.65625 152.777344 81.867188 152.777344 82.863281 C 152.769531 83.855469 152.070312 84.257812 151.210938 83.761719 L 134.015625 73.8125 C 133.160156 73.308594 132.460938 72.101562 132.460938 71.101562 C 132.46875 70.113281 133.171875 69.710938 134.027344 70.210938 L 151.222656 80.160156 " fill-opacity="1" fill-rule="nonzero"/><path fill="#582690" d="M 125.125 58.378906 L 135.285156 52.457031 C 135.570312 52.292969 135.964844 52.316406 136.398438 52.566406 L 126.238281 58.488281 C 125.804688 58.234375 125.410156 58.210938 125.125 58.378906 " fill-opacity="1" fill-rule="nonzero"/><path fill="#582690" d="M 126.238281 58.488281 L 136.398438 52.566406 L 142.648438 56.183594 L 132.492188 62.105469 L 126.238281 58.488281 " fill-opacity="1" fill-rule="nonzero"/><path fill="#582690" d="M 143.75 59.886719 L 133.589844 65.8125 C 133.871094 65.648438 134.042969 65.296875 134.042969 64.804688 C 134.050781 63.816406 133.347656 62.597656 132.492188 62.105469 L 142.648438 56.183594 C 143.507812 56.679688 144.210938 57.894531 144.203125 58.882812 C 144.203125 59.378906 144.03125 59.730469 143.75 59.886719 " fill-opacity="1" fill-rule="nonzero"/><path fill="#582690" d="M 132.492188 62.105469 C 133.347656 62.597656 134.050781 63.816406 134.042969 64.804688 C 134.042969 65.800781 133.335938 66.199219 132.480469 65.703125 L 126.226562 62.089844 C 125.367188 61.585938 124.667969 60.375 124.667969 59.378906 C 124.671875 58.386719 125.378906 57.992188 126.238281 58.488281 L 132.492188 62.105469 " fill-opacity="1" fill-rule="nonzero"/><path fill="#582690" d="M 137.625 65.613281 L 147.785156 59.695312 C 148.074219 59.527344 148.46875 59.554688 148.902344 59.804688 L 138.742188 65.726562 C 138.308594 65.472656 137.914062 65.449219 137.625 65.613281 " fill-opacity="1" fill-rule="nonzero"/><path fill="#582690" d="M 150 63.507812 L 139.839844 69.429688 C 140.117188 69.265625 140.289062 68.917969 140.296875 68.425781 C 140.296875 67.433594 139.597656 66.21875 138.742188 65.726562 L 148.902344 59.804688 C 149.757812 60.300781 150.460938 61.515625 150.457031 62.503906 C 150.457031 63 150.28125 63.34375 150 63.507812 " fill-opacity="1" fill-rule="nonzero"/><path fill="#582690" d="M 138.742188 65.726562 C 139.597656 66.21875 140.296875 67.433594 140.296875 68.425781 C 140.289062 69.414062 139.585938 69.820312 138.730469 69.324219 C 137.867188 68.828125 137.164062 67.605469 137.171875 66.613281 C 137.171875 65.625 137.878906 65.222656 138.742188 65.726562 " fill-opacity="1" fill-rule="nonzero"/><path fill="#582690" d="M 143.878906 69.234375 L 154.039062 63.308594 C 154.324219 63.144531 154.71875 63.167969 155.152344 63.421875 L 144.988281 69.339844 C 144.554688 69.089844 144.160156 69.070312 143.878906 69.234375 " fill-opacity="1" fill-rule="nonzero"/><path fill="#582690" d="M 144.988281 69.339844 L 155.152344 63.421875 L 161.398438 67.035156 L 151.238281 72.960938 L 144.988281 69.339844 " fill-opacity="1" fill-rule="nonzero"/><g clip-path="url(#ddc93462fc)"><path fill="#582690" d="M 162.496094 70.746094 L 152.335938 76.667969 C 152.617188 76.503906 152.792969 76.15625 152.796875 75.65625 C 152.796875 74.671875 152.101562 73.457031 151.238281 72.960938 L 161.398438 67.035156 C 162.257812 67.539062 162.957031 68.746094 162.957031 69.742188 C 162.957031 70.230469 162.785156 70.582031 162.496094 70.746094 " fill-opacity="1" fill-rule="nonzero"/></g><path fill="#582690" d="M 151.238281 72.960938 C 152.101562 73.457031 152.796875 74.671875 152.796875 75.65625 C 152.792969 76.652344 152.089844 77.058594 151.226562 76.5625 L 144.980469 72.941406 C 144.121094 72.445312 143.414062 71.226562 143.421875 70.230469 C 143.421875 69.242188 144.132812 68.84375 144.988281 69.339844 L 151.238281 72.960938 " fill-opacity="1" fill-rule="nonzero"/><path fill="#582690" d="M 125.148438 51.175781 L 135.304688 45.253906 C 135.585938 45.089844 135.980469 45.117188 136.421875 45.367188 L 126.261719 51.289062 C 125.824219 51.035156 125.429688 51.011719 125.148438 51.175781 " fill-opacity="1" fill-rule="nonzero"/><path fill="#582690" d="M 126.261719 51.289062 L 136.421875 45.367188 L 161.421875 59.835938 L 151.261719 65.761719 L 126.261719 51.289062 " fill-opacity="1" fill-rule="nonzero"/><g clip-path="url(#e88f05f0c2)"><path fill="#582690" d="M 162.519531 63.546875 L 152.359375 69.464844 C 152.640625 69.304688 152.816406 68.957031 152.816406 68.460938 C 152.816406 67.460938 152.121094 66.257812 151.261719 65.761719 L 161.421875 59.835938 C 162.28125 60.335938 162.980469 61.542969 162.976562 62.542969 C 162.976562 63.035156 162.800781 63.382812 162.519531 63.546875 " fill-opacity="1" fill-rule="nonzero"/></g><path fill="#582690" d="M 151.261719 65.761719 C 152.121094 66.257812 152.816406 67.460938 152.816406 68.460938 C 152.816406 69.457031 152.109375 69.859375 151.25 69.355469 L 126.25 54.886719 C 125.382812 54.390625 124.691406 53.175781 124.691406 52.179688 C 124.695312 51.183594 125.394531 50.785156 126.261719 51.289062 L 151.261719 65.761719 " fill-opacity="1" fill-rule="nonzero"/><path fill="#582690" d="M 125.164062 43.976562 L 135.328125 38.058594 C 135.609375 37.890625 136.003906 37.914062 136.4375 38.167969 L 126.277344 44.085938 C 125.84375 43.835938 125.449219 43.8125 125.164062 43.976562 " fill-opacity="1" fill-rule="nonzero"/><path fill="#582690" d="M 126.277344 44.085938 L 136.4375 38.167969 L 155.191406 49.019531 L 145.03125 54.941406 L 126.277344 44.085938 " fill-opacity="1" fill-rule="nonzero"/><path fill="#582690" d="M 156.289062 52.730469 L 146.128906 58.644531 C 146.410156 58.484375 146.585938 58.136719 146.585938 57.640625 C 146.585938 56.648438 145.886719 55.4375 145.03125 54.941406 L 155.191406 49.019531 C 156.054688 49.523438 156.75 50.730469 156.746094 51.722656 C 156.746094 52.214844 156.570312 52.566406 156.289062 52.730469 " fill-opacity="1" fill-rule="nonzero"/><path fill="#582690" d="M 145.03125 54.941406 C 145.886719 55.4375 146.585938 56.648438 146.585938 57.640625 C 146.582031 58.636719 145.882812 59.042969 145.019531 58.539062 L 126.265625 47.6875 C 125.410156 47.191406 124.707031 45.96875 124.707031 44.976562 C 124.714844 43.988281 125.421875 43.585938 126.277344 44.085938 L 145.03125 54.941406 " fill-opacity="1" fill-rule="nonzero"/><path fill="#582690" d="M 150.167969 58.449219 L 160.328125 52.53125 C 160.613281 52.363281 161.007812 52.382812 161.441406 52.636719 L 151.285156 58.5625 C 150.84375 58.308594 150.449219 58.285156 150.167969 58.449219 " fill-opacity="1" fill-rule="nonzero"/><g clip-path="url(#712e4d9ef2)"><path fill="#582690" d="M 162.542969 56.34375 L 152.375 62.265625 C 152.65625 62.101562 152.832031 61.75 152.835938 61.261719 C 152.835938 60.265625 152.140625 59.058594 151.285156 58.5625 L 161.441406 52.636719 C 162.300781 53.136719 162.996094 54.347656 162.996094 55.335938 C 162.996094 55.835938 162.816406 56.179688 162.542969 56.34375 " fill-opacity="1" fill-rule="nonzero"/></g><path fill="#582690" d="M 151.285156 58.5625 C 152.140625 59.058594 152.835938 60.265625 152.835938 61.261719 C 152.832031 62.25 152.128906 62.65625 151.273438 62.15625 C 150.410156 61.660156 149.707031 60.441406 149.710938 59.449219 C 149.710938 58.460938 150.421875 58.058594 151.285156 58.5625 " fill-opacity="1" fill-rule="nonzero"/><path fill="#582690" d="M 125.1875 36.773438 L 135.34375 30.855469 C 135.628906 30.691406 136.027344 30.714844 136.460938 30.96875 L 126.300781 36.886719 C 125.863281 36.636719 125.46875 36.609375 125.1875 36.773438 " fill-opacity="1" fill-rule="nonzero"/><path fill="#582690" d="M 126.300781 36.886719 L 136.460938 30.96875 L 161.464844 45.441406 L 151.300781 51.355469 L 126.300781 36.886719 " fill-opacity="1" fill-rule="nonzero"/><g clip-path="url(#a52f59ba10)"><path fill="#582690" d="M 162.558594 49.144531 L 152.398438 55.066406 C 152.679688 54.902344 152.855469 54.550781 152.855469 54.0625 C 152.859375 53.0625 152.160156 51.855469 151.300781 51.355469 L 161.464844 45.441406 C 162.320312 45.9375 163.019531 47.140625 163.015625 48.136719 C 163.015625 48.636719 162.839844 48.984375 162.558594 49.144531 " fill-opacity="1" fill-rule="nonzero"/></g><path fill="#582690" d="M 151.300781 51.355469 C 152.160156 51.855469 152.859375 53.0625 152.855469 54.0625 C 152.855469 55.054688 152.152344 55.457031 151.289062 54.960938 L 126.289062 40.488281 C 125.421875 39.984375 124.722656 38.777344 124.730469 37.777344 C 124.730469 36.785156 125.433594 36.382812 126.300781 36.886719 L 151.300781 51.355469 " fill-opacity="1" fill-rule="nonzero"/><path fill="#3b80cb" d="M 90.808594 16.882812 L 100.96875 10.957031 C 101.257812 10.792969 101.652344 10.816406 102.085938 11.070312 L 91.925781 16.988281 C 91.492188 16.738281 91.097656 16.710938 90.808594 16.882812 " fill-opacity="1" fill-rule="nonzero"/><path fill="#3b80cb" d="M 103.183594 14.773438 L 93.023438 20.691406 C 93.304688 20.527344 93.480469 20.183594 93.480469 19.6875 C 93.484375 18.699219 92.78125 17.484375 91.925781 16.988281 L 102.085938 11.070312 C 102.941406 11.5625 103.644531 12.777344 103.640625 13.769531 C 103.640625 14.261719 103.464844 14.613281 103.183594 14.773438 " fill-opacity="1" fill-rule="nonzero"/><path fill="#3b80cb" d="M 91.925781 16.988281 C 92.78125 17.484375 93.484375 18.699219 93.480469 19.6875 C 93.480469 20.679688 92.769531 21.085938 91.914062 20.589844 C 91.050781 20.09375 90.355469 18.875 90.355469 17.878906 C 90.359375 16.886719 91.0625 16.492188 91.925781 16.988281 " fill-opacity="1" fill-rule="nonzero"/><path fill="#3b80cb" d="M 97.039062 27.699219 L 107.203125 21.777344 C 107.484375 21.613281 107.878906 21.636719 108.3125 21.890625 L 98.152344 27.804688 C 97.71875 27.558594 97.324219 27.53125 97.039062 27.699219 " fill-opacity="1" fill-rule="nonzero"/><path fill="#3b80cb" d="M 109.410156 25.59375 L 99.253906 31.511719 C 99.535156 31.347656 99.707031 31.003906 99.707031 30.503906 C 99.714844 29.515625 99.011719 28.304688 98.152344 27.804688 L 108.3125 21.890625 C 109.167969 22.378906 109.875 23.59375 109.867188 24.589844 C 109.867188 25.078125 109.691406 25.429688 109.410156 25.59375 " fill-opacity="1" fill-rule="nonzero"/><path fill="#3b80cb" d="M 98.152344 27.804688 C 99.011719 28.304688 99.714844 29.515625 99.707031 30.503906 C 99.707031 31.5 99 31.90625 98.144531 31.410156 C 97.285156 30.910156 96.582031 29.691406 96.582031 28.699219 C 96.589844 27.703125 97.292969 27.308594 98.152344 27.804688 " fill-opacity="1" fill-rule="nonzero"/><path fill="#3b80cb" d="M 97.0625 20.5 L 107.222656 14.578125 C 107.507812 14.414062 107.902344 14.4375 108.335938 14.683594 L 98.175781 20.609375 C 97.742188 20.355469 97.34375 20.332031 97.0625 20.5 " fill-opacity="1" fill-rule="nonzero"/><path fill="#3b80cb" d="M 109.433594 18.394531 L 99.273438 24.3125 C 99.554688 24.148438 99.730469 23.804688 99.730469 23.304688 C 99.730469 22.3125 99.03125 21.105469 98.175781 20.609375 L 108.335938 14.683594 C 109.191406 15.183594 109.894531 16.394531 109.890625 17.390625 C 109.890625 17.878906 109.714844 18.230469 109.433594 18.394531 " fill-opacity="1" fill-rule="nonzero"/><path fill="#3b80cb" d="M 98.175781 20.609375 C 99.03125 21.105469 99.730469 22.3125 99.730469 23.304688 C 99.726562 24.300781 99.019531 24.703125 98.164062 24.203125 C 97.304688 23.707031 96.597656 22.488281 96.605469 21.5 C 96.605469 20.507812 97.316406 20.109375 98.175781 20.609375 " fill-opacity="1" fill-rule="nonzero"/><path fill="#3b56af" d="M 91.722656 99.722656 C 92.585938 100.21875 93.28125 101.4375 93.277344 102.421875 C 93.277344 103.414062 92.574219 103.820312 91.71875 103.324219 C 90.855469 102.820312 90.152344 101.609375 90.15625 100.613281 C 90.15625 99.625 90.867188 99.226562 91.722656 99.722656 " fill-opacity="1" fill-rule="nonzero"/><g clip-path="url(#7f23f1c44e)"><path fill="#3b56af" d="M 79.226562 92.488281 C 80.082031 92.980469 80.78125 94.199219 80.78125 95.1875 C 80.773438 96.175781 80.070312 96.582031 79.214844 96.085938 C 78.351562 95.589844 77.65625 94.371094 77.65625 93.375 C 77.65625 92.394531 78.363281 91.988281 79.226562 92.488281 " fill-opacity="1" fill-rule="nonzero"/></g><path fill="#3b56af" d="M 85.476562 96.101562 C 86.332031 96.605469 87.03125 97.820312 87.03125 98.808594 C 87.027344 99.796875 86.328125 100.203125 85.464844 99.707031 C 84.605469 99.207031 83.898438 97.988281 83.90625 96.996094 C 83.90625 96.011719 84.617188 95.605469 85.476562 96.101562 " fill-opacity="1" fill-rule="nonzero"/><g clip-path="url(#d34369f97a)"><path fill="#3b56af" d="M 97.996094 96.144531 C 98.859375 96.640625 99.554688 97.847656 99.550781 98.839844 C 99.550781 99.835938 98.847656 100.234375 97.984375 99.738281 L 79.238281 88.886719 C 78.371094 88.382812 77.671875 87.175781 77.675781 86.175781 C 77.675781 85.1875 78.382812 84.789062 79.242188 85.285156 L 97.996094 96.144531 " fill-opacity="1" fill-rule="nonzero"/></g><path fill="#3b56af" d="M 85.515625 81.707031 C 86.378906 82.203125 87.070312 83.417969 87.070312 84.402344 C 87.066406 85.398438 86.367188 85.804688 85.503906 85.300781 C 84.644531 84.804688 83.945312 83.585938 83.945312 82.597656 C 83.945312 81.609375 84.65625 81.207031 85.515625 81.707031 " fill-opacity="1" fill-rule="nonzero"/><g clip-path="url(#b2c0822dc5)"><path fill="#3b56af" d="M 79.265625 78.085938 C 80.121094 78.582031 80.824219 79.800781 80.820312 80.785156 C 80.820312 81.777344 80.109375 82.179688 79.253906 81.6875 C 78.390625 81.1875 77.695312 79.972656 77.695312 78.976562 C 77.699219 77.988281 78.402344 77.589844 79.265625 78.085938 " fill-opacity="1" fill-rule="nonzero"/></g><path fill="#d0aedc" d="M 116.792969 88.8125 C 119.386719 90.308594 121.476562 93.625 121.46875 96.203125 L 108.964844 88.972656 C 108.976562 86.386719 111.085938 85.503906 113.675781 87 L 116.792969 88.8125 " fill-opacity="1" fill-rule="nonzero"/><g clip-path="url(#60a3a8f16f)"><path fill="#f8a513" d="M 101.179688 78.140625 C 101.472656 78.316406 101.773438 78.589844 102.039062 78.949219 C 102.753906 79.914062 102.945312 81.144531 102.46875 81.695312 L 99.324219 85.289062 C 99.03125 85.617188 98.546875 85.640625 98.023438 85.339844 L 79.277344 74.484375 C 78.410156 73.988281 77.710938 72.773438 77.714844 71.777344 C 77.714844 70.785156 78.421875 70.382812 79.289062 70.886719 L 97.195312 81.253906 L 99.871094 78.191406 C 100.175781 77.847656 100.671875 77.855469 101.179688 78.140625 " fill-opacity="1" fill-rule="nonzero"/></g><path fill="#a3e1f0" d="M 109.015625 71.683594 C 110.027344 72.269531 110.964844 73.132812 111.726562 74.121094 C 110.796875 74.546875 110.125 75.5 109.882812 76.878906 L 101.195312 71.847656 C 101.199219 69.261719 103.3125 68.378906 105.890625 69.875 L 109.015625 71.683594 " fill-opacity="1" fill-rule="nonzero"/><path fill="#5bb3e7" d="M 138.617188 119.652344 C 139.480469 120.15625 140.183594 121.371094 140.183594 122.359375 C 140.175781 123.351562 139.472656 123.753906 138.613281 123.253906 L 132.359375 119.636719 C 131.5 119.140625 130.800781 117.925781 130.804688 116.933594 C 130.804688 115.945312 131.511719 115.539062 132.371094 116.039062 L 138.617188 119.652344 " fill-opacity="1" fill-rule="nonzero"/><path fill="#f8a513" d="M 115.242188 84.308594 C 116.535156 85.054688 117.59375 84.292969 117.601562 82.601562 C 117.601562 80.914062 116.550781 78.933594 115.257812 78.183594 C 113.972656 77.4375 112.914062 78.199219 112.910156 79.894531 C 112.902344 81.574219 113.957031 83.5625 115.242188 84.308594 Z M 120.628906 83.09375 C 120.691406 83.539062 120.726562 83.980469 120.726562 84.414062 C 120.71875 85.777344 120.375 86.847656 119.796875 87.570312 C 118.804688 88.792969 117.132812 89.003906 115.234375 87.90625 C 113.335938 86.808594 111.671875 84.660156 110.691406 82.304688 C 110.117188 80.910156 109.777344 79.445312 109.785156 78.082031 C 109.785156 77.652344 109.824219 77.25 109.882812 76.878906 C 110.125 75.5 110.796875 74.546875 111.726562 74.121094 C 112.609375 73.722656 113.726562 73.789062 114.949219 74.40625 C 115.054688 74.460938 115.160156 74.519531 115.269531 74.578125 C 115.382812 74.648438 115.488281 74.714844 115.59375 74.78125 C 116.816406 75.578125 117.933594 76.796875 118.804688 78.214844 C 119.734375 79.71875 120.394531 81.441406 120.628906 83.09375 " fill-opacity="1" fill-rule="nonzero"/><path fill="#7c3ea3" d="M 110.691406 82.304688 C 111.671875 84.660156 113.335938 86.808594 115.234375 87.90625 C 117.132812 89.003906 118.804688 88.792969 119.796875 87.570312 C 122.617188 90.457031 124.605469 94.566406 124.59375 98.015625 C 124.59375 99.003906 123.890625 99.40625 123.027344 98.910156 C 122.160156 98.40625 121.464844 97.199219 121.46875 96.203125 C 121.476562 93.625 119.386719 90.308594 116.792969 88.8125 L 113.675781 87 C 111.085938 85.503906 108.976562 86.386719 108.964844 88.972656 C 108.964844 89.960938 108.261719 90.359375 107.402344 89.863281 C 106.539062 89.363281 105.839844 88.152344 105.847656 87.160156 C 105.851562 83.714844 107.855469 81.910156 110.691406 82.304688 " fill-opacity="1" fill-rule="nonzero"/><path fill="#ffffff" d="M 115.257812 78.183594 C 116.550781 78.933594 117.601562 80.914062 117.601562 82.601562 C 117.59375 84.292969 116.535156 85.054688 115.242188 84.308594 C 113.957031 83.5625 112.902344 81.574219 112.910156 79.894531 C 112.914062 78.199219 113.972656 77.4375 115.257812 78.183594 " fill-opacity="1" fill-rule="nonzero"/><path fill="#5bb3e7" d="M 102.914062 65.179688 C 103.894531 67.535156 105.558594 69.683594 107.457031 70.78125 C 109.355469 71.882812 111.027344 71.667969 112.011719 70.445312 C 113.15625 71.609375 114.160156 72.96875 114.949219 74.40625 C 113.726562 73.789062 112.609375 73.722656 111.726562 74.121094 C 110.964844 73.132812 110.027344 72.269531 109.015625 71.683594 L 105.890625 69.875 C 103.3125 68.378906 101.199219 69.261719 101.195312 71.847656 C 101.1875 72.839844 100.492188 73.242188 99.625 72.738281 C 98.761719 72.242188 98.0625 71.035156 98.070312 70.039062 C 98.082031 66.589844 100.078125 64.785156 102.914062 65.179688 " fill-opacity="1" fill-rule="nonzero"/><path fill="#ffffff" d="M 107.484375 61.0625 C 108.773438 61.8125 109.824219 63.796875 109.816406 65.476562 C 109.816406 67.167969 108.757812 67.929688 107.46875 67.183594 C 106.171875 66.433594 105.132812 64.449219 105.132812 62.769531 C 105.136719 61.078125 106.191406 60.3125 107.484375 61.0625 " fill-opacity="1" fill-rule="nonzero"/><path fill="#5bb3e7" d="M 144.875 123.273438 C 145.730469 123.769531 146.433594 124.988281 146.429688 125.976562 C 146.429688 126.972656 145.71875 127.371094 144.863281 126.875 C 144 126.378906 143.304688 125.160156 143.304688 124.171875 C 143.308594 123.183594 144.007812 122.777344 144.875 123.273438 " fill-opacity="1" fill-rule="nonzero"/><path fill="#3b56af" d="M 110.773438 53.503906 C 111.75 55.855469 113.421875 58.007812 115.3125 59.105469 C 117.210938 60.203125 118.890625 59.988281 119.875 58.769531 C 122.261719 61.203125 124.046875 64.511719 124.539062 67.554688 C 124.085938 67.148438 123.609375 66.792969 123.121094 66.503906 C 122.492188 66.144531 121.890625 65.925781 121.328125 65.839844 C 120.730469 63.609375 118.964844 61.214844 116.878906 60.011719 L 113.753906 58.199219 C 111.671875 56.992188 109.894531 57.335938 109.28125 58.859375 C 108.71875 58.300781 108.121094 57.828125 107.496094 57.460938 C 107 57.179688 106.523438 56.980469 106.070312 56.867188 C 106.578125 54.40625 108.382812 53.167969 110.773438 53.503906 " fill-opacity="1" fill-rule="nonzero"/><path fill="#f8a513" d="M 107.46875 67.183594 C 108.757812 67.929688 109.816406 67.167969 109.816406 65.476562 C 109.824219 63.796875 108.773438 61.8125 107.484375 61.0625 C 106.191406 60.3125 105.136719 61.078125 105.132812 62.769531 C 105.132812 64.449219 106.171875 66.433594 107.46875 67.183594 Z M 111.21875 61.417969 C 112.285156 63.253906 112.949219 65.371094 112.941406 67.285156 C 112.9375 68.652344 112.597656 69.722656 112.011719 70.445312 C 111.027344 71.667969 109.355469 71.882812 107.457031 70.78125 C 105.558594 69.683594 103.894531 67.535156 102.914062 65.179688 C 102.339844 63.785156 102.007812 62.320312 102.007812 60.957031 C 102.015625 57.890625 103.742188 56.285156 106.070312 56.867188 C 106.523438 56.980469 107 57.179688 107.496094 57.460938 C 108.121094 57.828125 108.71875 58.300781 109.28125 58.859375 C 110.007812 59.59375 110.667969 60.46875 111.21875 61.417969 " fill-opacity="1" fill-rule="nonzero"/><path fill="#5bb3e7" d="M 144.890625 116.074219 C 145.757812 116.578125 146.453125 117.785156 146.453125 118.777344 C 146.445312 119.773438 145.746094 120.171875 144.878906 119.675781 L 132.378906 112.4375 C 131.523438 111.941406 130.824219 110.726562 130.828125 109.734375 C 130.828125 108.738281 131.53125 108.339844 132.390625 108.835938 L 144.890625 116.074219 " fill-opacity="1" fill-rule="nonzero"/><path fill="#5bb3e7" d="M 144.910156 108.875 C 145.777344 109.371094 146.472656 110.585938 146.472656 111.574219 C 146.46875 112.574219 145.769531 112.972656 144.902344 112.472656 L 132.398438 105.238281 C 131.539062 104.742188 130.839844 103.527344 130.847656 102.535156 C 130.847656 101.539062 131.550781 101.140625 132.410156 101.636719 L 144.910156 108.875 " fill-opacity="1" fill-rule="nonzero"/><path fill="#38b968" d="M 118.539062 74.222656 C 119.515625 76.578125 121.1875 78.730469 123.078125 79.824219 C 124.976562 80.925781 126.65625 80.710938 127.640625 79.492188 C 130.46875 82.378906 132.449219 86.492188 132.445312 89.9375 C 132.445312 90.929688 131.742188 91.328125 130.878906 90.828125 C 130.011719 90.328125 129.3125 89.125 129.320312 88.125 C 129.324219 85.542969 127.230469 82.226562 124.640625 80.726562 L 121.519531 78.921875 C 120.507812 78.335938 119.570312 78.113281 118.804688 78.214844 C 117.933594 76.796875 116.816406 75.578125 115.59375 74.78125 C 116.394531 74.261719 117.402344 74.066406 118.539062 74.222656 " fill-opacity="1" fill-rule="nonzero"/><path fill="#f8a513" d="M 123.089844 76.226562 C 124.386719 76.972656 125.441406 76.210938 125.445312 74.523438 C 125.449219 72.835938 124.402344 70.859375 123.109375 70.109375 C 121.816406 69.355469 120.765625 70.125 120.757812 71.8125 C 120.753906 73.496094 121.800781 75.476562 123.089844 76.226562 Z M 124.539062 67.554688 C 126.863281 69.667969 128.578125 73.257812 128.570312 76.328125 C 128.566406 77.695312 128.222656 78.769531 127.640625 79.492188 C 126.65625 80.710938 124.976562 80.925781 123.078125 79.824219 C 121.1875 78.730469 119.515625 76.578125 118.539062 74.222656 C 117.964844 72.828125 117.628906 71.367188 117.632812 70 C 117.640625 68.085938 118.308594 66.742188 119.386719 66.144531 C 119.9375 65.832031 120.601562 65.726562 121.328125 65.839844 C 121.890625 65.925781 122.492188 66.144531 123.121094 66.503906 C 123.609375 66.792969 124.085938 67.148438 124.539062 67.554688 " fill-opacity="1" fill-rule="nonzero"/><path fill="#ffffff" d="M 123.109375 70.109375 C 124.402344 70.859375 125.449219 72.835938 125.445312 74.523438 C 125.441406 76.210938 124.386719 76.972656 123.089844 76.226562 C 121.800781 75.476562 120.753906 73.496094 120.757812 71.8125 C 120.765625 70.125 121.816406 69.355469 123.109375 70.109375 " fill-opacity="1" fill-rule="nonzero"/><path fill="#a0acde" d="M 116.878906 60.011719 C 118.964844 61.214844 120.730469 63.609375 121.328125 65.839844 C 120.601562 65.726562 119.9375 65.832031 119.386719 66.144531 L 111.21875 61.417969 C 110.667969 60.46875 110.007812 59.59375 109.28125 58.859375 C 109.894531 57.335938 111.671875 56.992188 113.753906 58.199219 L 116.878906 60.011719 " fill-opacity="1" fill-rule="nonzero"/><path fill="#f8a513" d="M 115.324219 55.507812 C 116.613281 56.253906 117.671875 55.488281 117.679688 53.800781 C 117.683594 52.113281 116.632812 50.132812 115.34375 49.378906 C 114.050781 48.636719 112.992188 49.398438 112.988281 51.089844 C 112.988281 52.773438 114.035156 54.761719 115.324219 55.507812 Z M 115.351562 45.777344 C 118.371094 47.527344 120.816406 51.9375 120.804688 55.613281 C 120.800781 56.976562 120.460938 58.046875 119.875 58.769531 C 118.890625 59.988281 117.210938 60.203125 115.3125 59.105469 C 113.421875 58.007812 111.75 55.855469 110.773438 53.503906 C 110.195312 52.109375 109.863281 50.644531 109.863281 49.277344 C 109.875 45.601562 112.335938 44.035156 115.351562 45.777344 " fill-opacity="1" fill-rule="nonzero"/><path fill="#ffffff" d="M 115.34375 49.378906 C 116.632812 50.132812 117.683594 52.113281 117.679688 53.800781 C 117.671875 55.488281 116.613281 56.253906 115.324219 55.507812 C 114.035156 54.761719 112.988281 52.773438 112.988281 51.089844 C 112.992188 49.398438 114.050781 48.636719 115.34375 49.378906 " fill-opacity="1" fill-rule="nonzero"/><g clip-path="url(#768d484c90)"><path fill="#f8a513" d="M 151.183594 105.289062 C 152.050781 105.792969 152.742188 107 152.742188 107.992188 L 152.65625 136.796875 C 152.65625 137.789062 151.953125 138.191406 151.09375 137.691406 L 126.085938 123.222656 C 125.230469 122.726562 124.527344 121.511719 124.527344 120.511719 L 124.570312 106.339844 C 124.570312 105.339844 125.28125 104.945312 126.144531 105.441406 C 127 105.9375 127.703125 107.152344 127.699219 108.152344 L 127.664062 120.527344 L 149.542969 133.1875 L 149.609375 107.988281 L 129.296875 96.226562 C 128.433594 95.730469 127.738281 94.515625 127.742188 93.523438 C 127.742188 92.527344 128.445312 92.128906 129.308594 92.628906 L 151.183594 105.289062 " fill-opacity="1" fill-rule="nonzero"/></g><path fill="#7c3ea3" d="M 138.773438 65.652344 C 139.636719 66.148438 140.335938 67.363281 140.335938 68.359375 C 140.328125 69.347656 139.625 69.753906 138.765625 69.253906 C 137.902344 68.753906 137.203125 67.539062 137.210938 66.546875 C 137.210938 65.558594 137.914062 65.15625 138.773438 65.652344 " fill-opacity="1" fill-rule="nonzero"/><path fill="#7c3ea3" d="M 151.253906 80.089844 C 152.117188 80.585938 152.816406 81.800781 152.816406 82.796875 C 152.808594 83.789062 152.105469 84.191406 151.242188 83.6875 L 134.054688 73.742188 C 133.195312 73.242188 132.496094 72.027344 132.496094 71.035156 C 132.5 70.039062 133.199219 69.640625 134.066406 70.140625 L 151.253906 80.089844 " fill-opacity="1" fill-rule="nonzero"/><path fill="#7c3ea3" d="M 151.292969 65.6875 C 152.160156 66.191406 152.855469 67.390625 152.855469 68.390625 C 152.847656 69.386719 152.152344 69.792969 151.285156 69.289062 L 126.285156 54.816406 C 125.421875 54.320312 124.71875 53.105469 124.722656 52.109375 C 124.722656 51.113281 125.433594 50.71875 126.296875 51.214844 L 151.292969 65.6875 " fill-opacity="1" fill-rule="nonzero"/><path fill="#7c3ea3" d="M 132.523438 62.035156 C 133.386719 62.535156 134.085938 63.746094 134.085938 64.738281 C 134.078125 65.730469 133.375 66.132812 132.511719 65.636719 L 126.261719 62.015625 C 125.40625 61.519531 124.703125 60.300781 124.703125 59.308594 C 124.707031 58.320312 125.410156 57.917969 126.273438 58.414062 L 132.523438 62.035156 " fill-opacity="1" fill-rule="nonzero"/><path fill="#7c3ea3" d="M 145.066406 54.867188 C 145.925781 55.367188 146.625 56.578125 146.625 57.574219 C 146.621094 58.566406 145.917969 58.96875 145.054688 58.472656 L 126.308594 47.621094 C 125.445312 47.117188 124.742188 45.898438 124.742188 44.910156 C 124.746094 43.914062 125.449219 43.519531 126.3125 44.015625 L 145.066406 54.867188 " fill-opacity="1" fill-rule="nonzero"/><path fill="#7c3ea3" d="M 151.335938 51.289062 C 152.203125 51.792969 152.898438 52.996094 152.894531 53.988281 C 152.894531 54.988281 152.191406 55.386719 151.324219 54.886719 L 126.324219 40.414062 C 125.460938 39.917969 124.761719 38.703125 124.761719 37.710938 C 124.769531 36.710938 125.472656 36.316406 126.335938 36.816406 L 151.335938 51.289062 " fill-opacity="1" fill-rule="nonzero"/><path fill="#7c3ea3" d="M 151.3125 58.488281 C 152.171875 58.984375 152.878906 60.199219 152.878906 61.191406 C 152.871094 62.179688 152.167969 62.585938 151.304688 62.089844 C 150.445312 61.585938 149.746094 60.375 149.75 59.378906 C 149.75 58.390625 150.457031 57.992188 151.3125 58.488281 " fill-opacity="1" fill-rule="nonzero"/><path fill="#7c3ea3" d="M 151.273438 72.886719 C 152.132812 73.386719 152.835938 74.601562 152.832031 75.589844 C 152.832031 76.585938 152.121094 76.984375 151.265625 76.488281 L 145.015625 72.867188 C 144.152344 72.371094 143.457031 71.15625 143.457031 70.164062 C 143.460938 69.171875 144.164062 68.777344 145.027344 69.273438 L 151.273438 72.886719 " fill-opacity="1" fill-rule="nonzero"/><path fill="#3b56af" d="M 98.011719 88.9375 C 98.875 89.441406 99.574219 90.65625 99.574219 91.640625 C 99.566406 92.628906 98.863281 93.039062 98.007812 92.539062 L 91.757812 88.921875 C 90.894531 88.425781 90.191406 87.203125 90.195312 86.210938 C 90.195312 85.226562 90.90625 84.820312 91.765625 85.324219 L 98.011719 88.9375 " fill-opacity="1" fill-rule="nonzero"/><path fill="#3b56af" d="M 97.972656 103.339844 C 98.835938 103.839844 99.535156 105.050781 99.527344 106.039062 C 99.527344 107.035156 98.824219 107.441406 97.960938 106.9375 C 97.105469 106.441406 96.402344 105.222656 96.40625 104.234375 C 96.40625 103.246094 97.113281 102.84375 97.972656 103.339844 " fill-opacity="1" fill-rule="nonzero"/><path fill="#5bb3e7" d="M 98.210938 20.535156 C 99.070312 21.035156 99.765625 22.246094 99.765625 23.238281 C 99.757812 24.226562 99.0625 24.632812 98.199219 24.136719 C 97.335938 23.640625 96.640625 22.421875 96.640625 21.425781 C 96.644531 20.4375 97.347656 20.039062 98.210938 20.535156 " fill-opacity="1" fill-rule="nonzero"/><path fill="#5bb3e7" d="M 91.960938 16.921875 C 92.820312 17.417969 93.519531 18.625 93.511719 19.621094 C 93.511719 20.613281 92.808594 21.015625 91.949219 20.515625 C 91.085938 20.019531 90.386719 18.800781 90.386719 17.8125 C 90.394531 16.820312 91.097656 16.417969 91.960938 16.921875 " fill-opacity="1" fill-rule="nonzero"/><path fill="#5bb3e7" d="M 85.707031 13.300781 C 86.570312 13.796875 87.269531 15.011719 87.261719 16 C 87.261719 16.996094 86.558594 17.402344 85.695312 16.898438 C 84.839844 16.402344 84.136719 15.183594 84.136719 14.195312 C 84.140625 13.199219 84.847656 12.804688 85.707031 13.300781 " fill-opacity="1" fill-rule="nonzero"/><g clip-path="url(#13000e7c61)"><path fill="#5bb3e7" d="M 79.457031 9.683594 C 80.3125 10.179688 81.015625 11.394531 81.015625 12.382812 C 81.011719 13.375 80.308594 13.78125 79.449219 13.285156 C 78.589844 12.789062 77.886719 11.566406 77.890625 10.574219 C 77.890625 9.582031 78.59375 9.183594 79.457031 9.683594 " fill-opacity="1" fill-rule="nonzero"/></g><path fill="#5bb3e7" d="M 91.917969 31.320312 C 92.78125 31.816406 93.472656 33.03125 93.472656 34.015625 C 93.46875 35.011719 92.769531 35.417969 91.910156 34.921875 C 91.046875 34.417969 90.34375 33.203125 90.347656 32.210938 C 90.355469 31.21875 91.058594 30.820312 91.917969 31.320312 " fill-opacity="1" fill-rule="nonzero"/><g clip-path="url(#8ece11861f)"><path fill="#f8a513" d="M 98.148438 42.136719 C 98.667969 42.4375 99.15625 43.015625 99.445312 43.6875 L 102.550781 50.894531 C 103.03125 52 102.832031 53.003906 102.113281 53.140625 C 101.847656 53.191406 101.542969 53.117188 101.246094 52.945312 C 100.738281 52.648438 100.25 52.085938 99.945312 51.390625 L 97.296875 45.253906 L 79.390625 34.886719 C 78.523438 34.382812 77.824219 33.171875 77.828125 32.175781 C 77.828125 31.175781 78.53125 30.78125 79.394531 31.285156 L 98.148438 42.136719 " fill-opacity="1" fill-rule="nonzero"/></g><path fill="#5bb3e7" d="M 98.1875 27.738281 C 99.050781 28.234375 99.746094 29.445312 99.742188 30.4375 C 99.742188 31.425781 99.039062 31.839844 98.175781 31.335938 C 97.316406 30.839844 96.617188 29.617188 96.617188 28.625 C 96.621094 27.636719 97.324219 27.238281 98.1875 27.738281 " fill-opacity="1" fill-rule="nonzero"/><path fill="#5bb3e7" d="M 91.9375 24.121094 C 92.796875 24.617188 93.496094 25.824219 93.496094 26.820312 C 93.492188 27.8125 92.785156 28.21875 91.929688 27.714844 C 91.070312 27.21875 90.367188 26 90.371094 25.011719 C 90.371094 24.019531 91.074219 23.621094 91.9375 24.121094 " fill-opacity="1" fill-rule="nonzero"/><path fill="#5bb3e7" d="M 85.683594 20.5 C 86.546875 20.996094 87.246094 22.210938 87.246094 23.199219 C 87.238281 24.191406 86.542969 24.597656 85.679688 24.101562 C 84.816406 23.605469 84.113281 22.386719 84.121094 21.390625 C 84.121094 20.398438 84.828125 20.003906 85.683594 20.5 " fill-opacity="1" fill-rule="nonzero"/><g clip-path="url(#490dd42a90)"><path fill="#5bb3e7" d="M 79.441406 16.882812 C 80.296875 17.378906 80.992188 18.59375 80.992188 19.585938 C 80.988281 20.574219 80.285156 20.980469 79.429688 20.484375 C 78.566406 19.988281 77.867188 18.765625 77.867188 17.773438 C 77.867188 16.785156 78.578125 16.382812 79.441406 16.882812 " fill-opacity="1" fill-rule="nonzero"/></g><path fill="#5bb3e7" d="M 98.171875 34.9375 C 99.027344 35.433594 99.726562 36.644531 99.726562 37.636719 C 99.71875 38.628906 99.019531 39.035156 98.160156 38.539062 C 97.296875 38.039062 96.59375 36.816406 96.597656 35.828125 C 96.597656 34.835938 97.308594 34.441406 98.171875 34.9375 " fill-opacity="1" fill-rule="nonzero"/><path fill="#5bb3e7" d="M 85.667969 27.699219 C 86.53125 28.203125 87.226562 29.410156 87.222656 30.402344 C 87.222656 31.390625 86.519531 31.796875 85.65625 31.300781 C 84.796875 30.804688 84.097656 29.585938 84.097656 28.589844 C 84.101562 27.601562 84.808594 27.203125 85.667969 27.699219 " fill-opacity="1" fill-rule="nonzero"/><g clip-path="url(#b2fa856c2d)"><path fill="#5bb3e7" d="M 79.417969 24.085938 C 80.273438 24.578125 80.976562 25.789062 80.972656 26.785156 C 80.972656 27.777344 80.261719 28.179688 79.40625 27.683594 C 78.542969 27.183594 77.847656 25.964844 77.847656 24.976562 C 77.851562 23.984375 78.554688 23.582031 79.417969 24.085938 " fill-opacity="1" fill-rule="nonzero"/></g><path fill="#aedf8b" d="M 124.640625 80.726562 C 127.230469 82.226562 129.324219 85.542969 129.320312 88.125 L 120.628906 83.09375 C 120.394531 81.441406 119.734375 79.71875 118.804688 78.214844 C 119.570312 78.113281 120.507812 78.335938 121.519531 78.921875 L 124.640625 80.726562 " fill-opacity="1" fill-rule="nonzero"/></svg>